<svg xmlns="http://www.w3.org/2000/svg" width="582" height="460" fill="none" viewBox="0 0 582 460">
    <path fill="url(#paint0_linear)" d="M555.762 95.45L309.611 8.863c-19.449-7.012-40.721-6.098-59.258 2.744L122.415 72.584c-49.838 23.781-71.11 83.539-47.407 133.54l14.38 30.146c3.154 6.612 11.529 8.959 16.921 4.001 3.237-2.831 6.224-5.776 8.95-8.785 11.145-12.302 3.149-30.037-4.665-44.684-3.71-6.955-5.804-15.043-5.804-23.972 0-30.184 24.007-50.611 52.876-50.611 28.566 0 52.573 20.427 52.573 50.611 0 16.335-7.008 29.792-17.912 38.754-7.906 6.497-15.25 14.182-19.301 23.578-7.744 17.959-20.584 35.058-36.936 49.561-11.371 9.853-16.432 25.792-10.004 39.396l8.181 17.312c8.813 18.293 24.311 32.318 43.152 39.331l246.759 86.892c20.057 7.317 41.937-3.049 49.23-23.172l105.146-289.945c7.597-19.513-2.735-41.769-22.792-49.087z"/>
    <path fill="url(#paint1_linear)" d="M181.065 163.135c0-14.94-11.243-25.001-23.095-25.001-12.46 0-23.704 10.061-23.704 25.001 0 3.047.466 5.873 1.308 8.445 3.873 11.837 13.818 22.952 9.859 34.761-5.077 15.145-15.639 31.149-30.616 44.295-7.901 7.013-16.41 12.806-25.222 17.074-5.942 2.98-12.173 5.378-18.412 6.908-.285.07-.582.106-.845.237-.314.156-.667.223-1.005.312-1.96.519-3.94.799-6.177 1.08-5.774.914-11.548.914-16.41 0-8.205-1.22-15.194-4.573-20.057-10.061-15.714-18.102-5.233-54.657 22.904-81.552 2.34-2.237 3.512-5.446 3.174-8.667-.147-1.397-.268-2.797-.364-4.201-.415-6.056-7.107-9.511-11.735-5.583-40.113 35.062-52.573 84.758-28.261 112.503 3.915 4.489 8.345 7.945 13.526 10.607.901.462 1.814 1.016 2.75 1.405.91.379 1.786.726 2.702 1.095 1.486.599 3.105 1.063 4.725 1.527 7.293 2.135 15.498 3.049 24.311 2.135 1.824 0 3.95-.305 5.774-.61 1.138-.286 2.275-.304 3.662-.555.192-.035.364-.046.558-.063.459-.04.868-.381 1.32-.468.663-.127 1.396-.186 2.03-.343.222-.055.438-.096.667-.096.174 0 .357-.021.526-.063 1.058-.266 2.1-.532 2.925-.797.109-.036.222-.054.337-.054.087 0 .173-.011.258-.032.73-.183 1.459-.37 2.188-.627.908-.32 1.791-.709 2.702-1.02 15.344-5.238 30.638-13.918 44.213-25.761 20.502-17.827 33.832-39.422 38.838-59.907 2.924-11.965 11.113-23.608 13.928-35.599.466-1.984.718-4.098.718-6.325z"/>
    <path fill="#D3D5E0" d="M214.7 384.346l-.118-2.344 123.557-6.344-9.158-55.063 2.306-.378 9.6 57.642-126.187 6.487z"/>
    <path fill="#4E5882" d="M223.83 402.386c7.044-1.147 11.824-7.788 10.677-14.831-1.147-7.044-7.788-11.825-14.832-10.678-7.044 1.148-11.824 7.788-10.677 14.832 1.147 7.044 7.788 11.824 14.832 10.677z"/>
    <path fill="#EBEBEB" d="M215.833 389.674c0 1.164.345 2.303.992 3.271s1.567 1.723 2.643 2.169c1.076.445 2.26.562 3.402.335 1.142-.227 2.191-.788 3.014-1.612.824-.823 1.385-1.872 1.612-3.014.227-1.143.11-2.326-.335-3.402-.446-1.076-1.201-1.996-2.169-2.643-.968-.647-2.106-.992-3.271-.992-1.562 0-3.059.62-4.163 1.724-1.105 1.105-1.725 2.602-1.725 4.164z"/>
    <path fill="#4E5882" d="M322.834 402.377c7.044-1.147 11.824-7.787 10.677-14.831-1.148-7.044-7.788-11.824-14.832-10.677-7.044 1.147-11.824 7.787-10.677 14.831 1.147 7.044 7.788 11.825 14.832 10.677z"/>
    <path fill="#EBEBEB" d="M314.834 389.674c0 1.164.346 2.303.993 3.271s1.566 1.723 2.642 2.169c1.076.445 2.26.562 3.402.335 1.142-.227 2.191-.788 3.015-1.612.823-.823 1.384-1.872 1.611-3.014.227-1.143.111-2.326-.335-3.402-.445-1.076-1.2-1.996-2.168-2.643-.969-.647-2.107-.992-3.272-.992-1.561 0-3.059.62-4.163 1.724-1.104 1.105-1.725 2.602-1.725 4.164z"/>
    <path fill="#D3D5E0" d="M236.819 398.597l-.131-2.345 123.57-6.357-12.011-72.205 2.306-.378 12.44 74.798-126.174 6.487z"/>
    <path fill="#4E5882" d="M255.591 409.296c2.963-6.492.101-14.158-6.391-17.121-6.493-2.962-14.158-.101-17.121 6.392-2.963 6.492-.102 14.157 6.391 17.12 6.492 2.963 14.158.102 17.121-6.391z"/>
    <path fill="#EBEBEB" d="M237.952 403.925c0 1.165.346 2.304.993 3.273.648.968 1.568 1.723 2.645 2.168 1.076.445 2.261.561 3.404.333 1.142-.228 2.191-.79 3.014-1.615s1.383-1.875 1.608-3.018c.226-1.143.108-2.328-.34-3.403-.448-1.076-1.204-1.994-2.174-2.64-.97-.645-2.11-.988-3.275-.986-1.559.004-3.054.625-4.155 1.729-1.101 1.104-1.72 2.6-1.72 4.159z"/>
    <path fill="#4E5882" d="M355.478 406.386c1.384-7.002-3.17-13.799-10.171-15.183-7.002-1.384-13.799 3.17-15.183 10.171-1.384 7.002 3.17 13.799 10.172 15.183 7.001 1.384 13.799-3.17 15.182-10.171z"/>
    <path fill="#EBEBEB" d="M336.953 403.925c0 1.165.346 2.304.994 3.273.647.968 1.568 1.723 2.644 2.168 1.077.445 2.261.561 3.404.333 1.143-.228 2.192-.79 3.015-1.615.822-.825 1.382-1.875 1.608-3.018.226-1.143.107-2.328-.34-3.403-.448-1.076-1.205-1.994-2.175-2.64-.97-.645-2.109-.988-3.275-.986-1.559.004-3.053.625-4.155 1.729-1.101 1.104-1.72 2.6-1.72 4.159z"/>
    <path fill="#A6A6A6" d="M210.284 313.222l-18.055-82.25 123.035-19.878 1.303 85.975-1.003.156-105.28 15.997zm-15.241-80.374l17.064 77.729 102.024-15.566-1.172-81.208-117.916 19.045z"/>
    <path fill="#A6A6A6" d="M223.656 227.01l-2.317.363 12.673 81.017 2.316-.363-12.672-81.017zM256.553 221.836l-2.331.257 9.025 81.87 2.33-.256-9.024-81.871zM288.738 217.121l-2.343.101 3.562 82.563 2.342-.101-3.561-82.563z"/>
    <path fill="#A6A6A6" d="M315.087 237.182l-115.684 20.94.418 2.307 115.684-20.94-.418-2.307zM315.165 268.289l-109.858 16.32.345 2.319 109.858-16.32-.345-2.319z"/>
    <path fill="#DBDBDB" d="M252.919 331.094l-42.648-17.847-.131-.599-18.002-82.132 52.94 21.728 7.841 78.85zm-40.616-19.54l37.894 15.814-7.308-73.534-47.508-19.54 16.922 77.26z"/>
    <path fill="#DBDBDB" d="M210.012 238.021l-2.309.406 13.807 78.544 2.309-.406-13.807-78.544zM227.39 245.456l-2.321.33 11.033 77.521 2.321-.33-11.033-77.521z"/>
    <path fill="#DBDBDB" d="M206.872 291.187l-.774 2.214 42.891 14.995.774-2.214-42.891-14.995zM200.055 258.568l-.864 2.18 46.854 18.57.864-2.18-46.854-18.57zM366.524 317.065l-52.419-20.257V210.99l80.035 23.213-27.616 82.862zm-50.074-21.859l48.628 18.784 26.053-78.159-74.694-21.663.013 81.038z"/>
    <path fill="#DBDBDB" d="M315.703 237.14l-.839 2.189 67.615 25.888.839-2.19-67.615-25.887zM315.743 268.361l-.886 2.171 57.981 23.65.886-2.171-57.981-23.65z"/>
    <path fill="#DBDBDB" d="M340.847 219.96l-10.915 82.022 2.324.309 10.915-82.021-2.324-.31zM366.732 227.476l-18.343 81.46 2.287.515 18.343-81.46-2.287-.515zM334.085 145.698l-19.925 66.498 2.247.673 19.924-66.498-2.246-.673zM413.229 161.487l-21.866 72.974 2.246.673 21.866-72.974-2.246-.673z"/>
    <path fill="#1B254F" d="M330.491 142.392l-.945 4.594 89.785 18.479.946-4.593-89.786-18.48z"/>
    <path fill="#C95D4C" d="M337.032 200.751c2.996 1.705 6.167 3.085 9.457 4.116-5.523-6.852-6.201-23.448-5.393-21.142 3.83 10.995 12.896 22.575 15.983 22.901 7.602.076 15.062-2.051 21.481-6.123-7.034-7.672-8.22-24.49-7.699-23.447 5.576 10.525 15.71 16.022 17.365 15.853 5.705-5.784 8.519-11.281 7.594-11.724-6.708-3.231-13.026-12.597-18.784-22.588-5.719-9.835-9.913-24.92-17.508-33.465-6.956-7.816-19.539-8.259-26.222-3.296-17.495 12.909-.456 76.57 3.726 78.915z"/>
    <path fill="#C95D4C" d="M334.544 120.924c-1.521.839-2.852 1.983-3.908 3.361-1.023 1.312-1.921 2.717-2.684 4.195-1.405 2.909-2.476 5.968-3.191 9.118-1.498 6.24-.808 18.159-.404 24.464.51 6.302 1.627 12.54 3.335 18.628.39 1.537.898 3.035 1.302 4.546l1.511 4.507 1.707 4.442 1.85 4.377-1.407-4.442-1.446-4.507-1.303-4.52c-.391-1.524-.847-3.035-1.185-4.559-1.562-6.073-2.586-12.272-3.062-18.524-.495-6.24-1.159-18.055.105-24.255.6-3.135 1.549-6.194 2.826-9.119.678-1.482 1.489-2.899 2.423-4.234.494-.666 1.029-1.301 1.603-1.901.568-.611 1.216-1.141 1.928-1.577zM396.485 179.322c-2.105-1.914-4.11-3.936-6.006-6.057-1.901-2.085-3.725-4.234-5.419-6.449-1.693-2.214-3.321-4.494-4.767-6.838-1.446-2.345-2.814-4.781-4.234-7.165-2.879-4.755-6.669-15.02-9.874-19.618-1.615-2.293-3.283-4.559-5.119-6.722-.93-1.085-1.921-2.116-2.97-3.087-1.037-1.049-2.285-1.866-3.661-2.397 1.301.637 2.465 1.522 3.426 2.606.971 1.017 1.88 2.091 2.723 3.217 1.732 2.202 3.295 4.507 4.806 6.839 3.036 4.663 6.813 14.915 9.614 19.709 1.459 2.371 2.84 4.755 4.338 7.126 1.516 2.373 3.173 4.652 4.963 6.826 3.612 4.433 7.696 8.46 12.18 12.01z"/>
    <path fill="#EB9481" d="M328.916 177.016c-21.806-1.511-47.872-10.421-53.2-17.247-2.11-2.709-19.084-24.112-23.669-32.853-1.889-3.608 25.688-23.604 27.199-19.539 1.707 4.598 16.27 32.787 17.091 33.66 2.397 2.605 22.679 15.632 36.474 23.2 16.778 9.223 4.794 13.326-3.895 12.779z"/>
    <path fill="#D3D5E0" d="M291.256 170.06l13.483-24.45s22.979 12.101 32.723 19.761c7.946 6.253 6.122 12.753-7.96 12.154-13.352-.574-38.246-7.465-38.246-7.465z"/>
    <path fill="#1B254F" d="M298.134 168.445c2.959-6.563 6.322-12.937 10.07-19.084 0-.078.169 0 .13.078-.977 1.642-5.653 11.451-10.069 19.084-.052.091-.17.013-.131-.078z"/>
    <path fill="#fff" d="M330.636 173.017c0 .338-.101.669-.289.95-.188.281-.455.499-.768.628-.312.129-.656.162-.988.095-.331-.067-.635-.231-.873-.471-.238-.24-.4-.545-.464-.877-.065-.332-.029-.675.102-.987.132-.311.352-.577.635-.763.282-.186.613-.284.951-.281.224 0 .445.044.651.13.207.086.394.212.551.37.158.159.282.347.366.554.085.207.127.429.126.652zm-17.625-1.706c-.338-.003-.669.095-.952.281-.282.186-.503.452-.634.763-.131.312-.167.655-.103.987.065.332.226.637.464.877.239.24.543.404.874.471.331.067.675.034.988-.095.312-.129.58-.347.768-.628.188-.281.288-.612.288-.95.002-.223-.041-.445-.125-.652-.084-.207-.209-.395-.366-.554-.158-.158-.345-.284-.551-.37-.206-.086-.428-.13-.651-.13zm-15.932 0c-.214-.002-.426.038-.625.117l1.928.482c-.161-.188-.361-.338-.586-.442-.225-.103-.469-.157-.717-.157zm15.932-20.843c-.339-.002-.671.096-.953.283-.283.186-.504.453-.634.765-.131.312-.166.656-.1.989.065.332.228.637.467.877.24.239.545.402.877.467.332.066.676.031.989-.1.312-.131.579-.352.765-.634.187-.283.285-.614.282-.953.009-.228-.028-.455-.11-.668-.081-.213-.204-.408-.362-.572-.158-.164-.348-.295-.558-.384-.21-.089-.435-.135-.663-.135v.065zm22.627 13.587c.16.198.366.354.599.456l-.599-.456zm-14.707-2.892c-.338 0-.668.1-.948.288-.281.187-.5.454-.629.766-.129.311-.163.655-.097.986.066.331.229.635.467.873.239.239.543.402.874.467.331.066.674.032.986-.097.312-.129.578-.348.766-.628.187-.281.287-.611.287-.948 0-.453-.179-.887-.499-1.207-.32-.32-.755-.5-1.207-.5zm-15.932 0c-.337 0-.667.1-.948.288-.28.187-.499.454-.628.766-.129.311-.163.655-.097.986.066.331.228.635.467.873.238.239.542.402.874.467.331.066.674.032.985-.097.312-.129.579-.348.766-.628.188-.281.288-.611.288-.948 0-.446-.174-.874-.486-1.193-.312-.319-.736-.504-1.181-.514h-.04z"/>
    <path fill="#A6ACC1" d="M329.502 177.564c-10.004-.43-26.496-4.403-34.129-6.383l44.069-4.039c5.51 5.641 2.813 10.93-9.94 10.422z"/>
    <path fill="#EB9481" d="M241.326 116.756c3.817 5.836 16.309 14.72 20.139 15.697 3.83.977 19.644-19.735 18.589-23.656-1.055-3.921-15.437-22.588-22.145-24.75-6.709-2.163-20.543 26.664-16.583 32.709z"/>
    <path fill="#E83C4D" d="M295.321 179.009l-61.134 5.589 3.218-63.075 43.3-3.973 14.616 61.459z"/>
    <path fill="#E83C4D" d="M280.705 117.55l-1.094 62.892 15.71-1.433-14.616-61.459z"/>
    <path fill="#A6A6A6" d="M280.705 117.55l-1.094 62.892 15.71-1.433-14.616-61.459z" opacity=".1"/>
    <path fill="#000" d="M280.705 117.55l-1.094 62.892 15.71-1.433-14.616-61.459z" opacity=".1"/>
    <path fill="#fff" d="M280.392 179.895c1.173-1.016 2.41-1.954 3.635-2.892 1.224-.938 2.475-1.824 3.738-2.709l.183-.118.169.105c1.107.677 2.215 1.302 3.296 2.084 1.081.781 2.162 1.446 3.204 2.214-1.172-.56-2.318-1.172-3.452-1.81-1.133-.639-2.266-1.303-3.373-1.941h.351c-1.302.898-2.527 1.771-3.817 2.605-1.289.834-2.592 1.693-3.934 2.462z"/>
    <path fill="#fff" d="M287.961 174.554c-.639-3.908-1.199-7.894-1.746-11.854-.547-3.96-1.055-7.92-1.576-11.88-.521-3.96-.977-7.933-1.42-11.893l-.664-5.966c-.196-1.98-.417-3.908-.586-5.966.325 1.98.599 3.908.898 5.927l.847 5.94c.547 3.908 1.042 7.92 1.576 11.88.534 3.96.964 7.92 1.42 11.893.456 3.973.886 7.946 1.251 11.919z"/>
    <path fill="#4E5882" d="M248.634 126.213l-2.606-.391c0-.078 1.082-7.151 2.254-14.329 1.303-7.738 8.571-11.724 14.902-11.047 4.742.495 10.174 3.908 9.835 11.724-.351 8.441-.755 12.428-.768 12.584l-2.605-.261s.416-4.09.768-12.427c.248-6.057-3.699-8.623-7.49-9.014-2.761-.325-5.541.41-7.781 2.057-2.239 1.647-3.769 4.082-4.282 6.814-1.146 7.151-2.227 14.225-2.227 14.29z"/>
    <path fill="#1B254F" d="M250.809 125.809c.04.687-.124 1.37-.472 1.964-.349.593-.865 1.069-1.484 1.369-.619.3-1.314.409-1.995.315-.681-.095-1.319-.39-1.833-.847-.514-.458-.881-1.057-1.054-1.723-.173-.666-.145-1.368.081-2.018.226-.649.64-1.218 1.188-1.632.549-.415 1.209-.658 1.896-.697.92-.054 1.825.261 2.513.874.689.613 1.107 1.475 1.16 2.395zM274.166 124.454c.04.687-.125 1.37-.473 1.964-.348.593-.865 1.07-1.484 1.37-.619.299-1.313.409-1.995.314-.681-.095-1.319-.39-1.833-.847-.514-.457-.88-1.057-1.054-1.723-.173-.665-.145-1.368.081-2.017.226-.65.64-1.218 1.189-1.633.549-.415 1.208-.657 1.895-.697.921-.054 1.825.261 2.514.874.689.613 1.106 1.475 1.16 2.395z"/>
    <path fill="#A6ACC1" d="M302.902 165.097l-53.174 15.28-7.803-56.392 37.66-10.825 23.317 51.937z"/>
    <path fill="#4E5882" d="M279.585 113.16l9.652 55.858 13.665-3.921-23.317-51.937z"/>
    <path fill="#fff" d="M289.85 168.445c.859-1.094 1.784-2.123 2.722-3.166.938-1.042 1.889-2.045 2.853-3.035l.13-.13h.183c1.094.404 2.188.821 3.256 1.303 1.068.482 2.163.912 3.218 1.42-1.133-.3-2.254-.652-3.361-1.03-1.107-.377-2.215-.742-3.322-1.146l.313-.065c-.955.999-1.932 1.989-2.931 2.97-1.003.964-1.941 1.928-3.061 2.879z"/>
    <path fill="#fff" d="M295.633 162.388c-1.224-3.374-2.396-6.787-3.543-10.2-1.146-3.413-2.266-6.826-3.4-10.252-1.133-3.426-2.201-6.852-3.269-10.291l-1.59-5.21c-.508-1.733-1.042-3.452-1.537-5.211.626 1.694 1.212 3.4 1.811 5.093l1.746 5.12c1.159 3.4 2.266 6.826 3.399 10.239 1.134 3.413 2.202 6.865 3.27 10.304s2.123 6.956 3.113 10.408z"/>
    <path fill="#4E5882" d="M252.385 126.604l-2.396.169s-.469-6.617-.873-13.247c-.107-3.145.978-6.214 3.039-8.591 2.061-2.377 4.945-3.887 8.072-4.228 4.325-.521 9.848 1.394 11.151 8.494 1.381 7.607 1.824 11.255 1.837 11.411l-2.384.287s-.443-3.739-1.811-11.268c-1.003-5.458-5.054-6.957-8.506-6.514-2.532.263-4.869 1.477-6.54 3.397-1.671 1.92-2.551 4.403-2.461 6.946.377 6.54.859 13.079.872 13.144z"/>
    <path fill="#1B254F" d="M254.248 125.809c.177.608.168 1.255-.024 1.859-.192.603-.56 1.136-1.055 1.53-.496.394-1.098.631-1.729.682-.632.051-1.264-.087-1.816-.397-.553-.309-1.001-.776-1.287-1.341-.287-.564-.399-1.202-.322-1.83.077-.629.339-1.22.753-1.7.414-.479.961-.824 1.572-.991.808-.218 1.67-.111 2.4.298s1.272 1.087 1.508 1.89zM274.856 119.883c.179.607.173 1.255-.017 1.859-.19.605-.556 1.139-1.051 1.535-.495.395-1.096.635-1.728.688-.631.052-1.264-.084-1.818-.392-.553-.308-1.003-.774-1.29-1.339-.288-.564-.402-1.202-.326-1.831.076-.629.337-1.221.751-1.702.413-.48.96-.826 1.571-.994.807-.222 1.668-.118 2.399.289.731.407 1.273 1.084 1.509 1.887z"/>
    <path fill="#EB9481" d="M263.797 88.098c1.055 3.543-3.726 2.748-3.726 2.748s6.605 2.8 6.266 6.865c-.339 4.064-6.058 2.775-6.513 2.697.351.143 6.344 2.878 5.601 6.93-.743 4.051-6.357 2.071-6.709 1.928.287.247 3.986 3.556 2.71 6.513-2.189 5.067-11.88-3.139-16.322-2.605 0 0 .091 7.62 0 7.816 0 0-9.379-7.621-9.796-13.652-.065-.876.167-1.749.658-2.476.492-.728 1.214-1.269 2.051-1.536 0 0-3.296-2.124-2.814-5.341.261-1.642 3.127-2.697 3.127-2.697-.721-.52-1.285-1.23-1.63-2.05-.345-.821-.457-1.72-.324-2.6.482-2.254 3.283-2.97 3.283-2.97s-1.655-2.88-.404-5.029c2.579-4.272 22.288-2.136 24.542 5.459z"/>
    <path fill="#1B254F" d="M240.167 87.563c-.066 0-.079-.104 0-.104 6.915-.94 13.952.246 20.178 3.4.195.104.104.469-.131.39-6.468-2.194-13.221-3.436-20.047-3.686zM238.317 95.301c-.078 0-.078-.13 0-.143 7.634-.964 15.361.838 21.78 5.08.222.157.261.521 0 .365-4.494-2.683-15.371-5.106-21.78-5.302zM259.094 109.735c-6.318-4.091-13.3-5.732-20.725-6.396-.091 0-.078-.144 0-.17 3.712-.664 8.402.261 11.984 1.303 3.35.884 6.409 2.631 8.871 5.067.105.065 0 .287-.13.196z"/>
    <path fill="#1B254F" d="M260.071 90.846c1.215.658 2.37 1.42 3.452 2.28 1.076.793 1.922 1.858 2.449 3.087.228.573.228 1.212 0 1.785-.233.58-.615 1.087-1.107 1.472-.517.339-1.1.566-1.71.667-.61.101-1.235.073-1.833-.081l-2.97-.638 2.605 1.628c1.142.698 2.163 1.578 3.022 2.605.421.461.741 1.005.939 1.598.197.592.268 1.22.207 1.841-.076.572-.34 1.102-.75 1.508-.411.405-.944.663-1.516.733-1.3.106-2.605-.122-3.791-.665l-3.309-1.367 2.671 2.371c.745.659 1.402 1.412 1.954 2.24.557.758.874 1.665.912 2.605-.003.429-.127.849-.357 1.211-.231.361-.559.651-.946.835-.91.299-1.887.331-2.814.091-2.018-.493-3.996-1.142-5.914-1.941-.99-.378-1.98-.743-2.983-1.068-.989-.39-2.052-.559-3.113-.495 1.044.052 2.067.313 3.009.768.977.391 1.928.834 2.879 1.303 1.9.96 3.889 1.732 5.94 2.305 1.104.333 2.282.333 3.387 0 .582-.242 1.08-.651 1.432-1.174.352-.523.543-1.139.548-1.77-.017-1.17-.384-2.309-1.055-3.269-.596-.935-1.315-1.785-2.137-2.527l-.638 1.003c1.389.654 2.924.936 4.455.82.85-.088 1.642-.471 2.241-1.081.56-.619.927-1.389 1.055-2.214.078-.789-.012-1.586-.263-2.338-.252-.752-.659-1.443-1.196-2.026-.957-1.132-2.092-2.1-3.361-2.866l-.404 1.003c.752.161 1.53.159 2.281-.008.75-.166 1.456-.492 2.07-.956.589-.502 1.038-1.148 1.303-1.876.259-.742.236-1.553-.066-2.28-.662-1.275-1.668-2.34-2.904-3.074-1.144-.818-2.376-1.504-3.674-2.045z"/>
    <path fill="#EB9481" d="M279.246 107.39s-13.548-33.687-21.728-23.722c-2.436 2.957-8.884 18.003-5.875 19.358 3.908 1.745 7.725-4.038 9.574-8.05 0 0 2.892 9.756 10.278 9.769 2.801.026 5.519.953 7.751 2.645z"/>
    <path fill="#1B254F" d="M258.247 82.874c-1.088 1.05-2.018 2.252-2.761 3.569-.781 1.296-1.469 2.645-2.058 4.038-1.242 2.764-2.236 5.632-2.97 8.572-.198.783-.281 1.59-.248 2.397.027.455.151.899.365 1.302.113.227.268.43.456.599.181.176.393.317.625.417.826.351 1.749.397 2.605.131.786-.26 1.522-.652 2.176-1.16 1.217-.991 2.252-2.185 3.061-3.53.82-1.29 1.542-2.64 2.162-4.038l-.99-.078c.375 1.1.85 2.165 1.42 3.178.558 1.007 1.217 1.954 1.967 2.827.753.868 1.631 1.618 2.606 2.227.961.61 2.031 1.026 3.152 1.225-1.062-.344-2.061-.859-2.957-1.524-.871-.68-1.646-1.473-2.306-2.358-.667-.873-1.243-1.811-1.719-2.8-.483-.977-.872-1.998-1.16-3.049l-.351-1.303-.626 1.212c-.649 1.324-1.384 2.603-2.201 3.83-.77 1.209-1.728 2.286-2.84 3.191-.463.434-1.029.743-1.644.898-.615.155-1.26.151-1.873-.012-.964-.352-.847-1.993-.573-3.374.304-1.442.683-2.869 1.133-4.273.43-1.433.886-2.852 1.407-4.233.962-2.827 2.359-5.486 4.142-7.881z"/>
    <path fill="#EBEBEB" d="M185.312 306.252c-5.471 6.722-10.135 12.402-11.476 13.913 0 0-9.419 10.186-9.848 10.186-3.166-.508-59.141-47.312-60.443-49.592-1.303-2.279 5.067-6.148 8.584-5.966 4.042.769 8.032 1.791 11.945 3.062 9.119 2.605 19.253 6.109 19.253 6.109l6.149-8.037 35.836 30.325z"/>
    <path fill="#E83C4D" d="M103.258 280.721c1.394 2.318 57.317 49.904 60.56 50.36 1.303.195 8.637-7.542 17.312-17.143l.261-.299-35.719-31.108-.508.625s-29.518-8.649-33.178-8.766c-3.661-.118-10.122 4.025-8.728 6.331z"/>
    <path fill="#1B254F" d="M105.733 279.092c9.614 7.816 47.677 40.122 56.6 48.55.078.065 0 .117 0 0-9.705-7.504-47.494-40.148-56.678-48.446-.248-.13-.13-.273.078-.104zM141.569 279.17c4.299 2.462 8.35 6.891 8.936 11.945 0 .196-.247.222-.339.079-2.572-4.156-5.58-8.026-8.975-11.542-.046-.055-.072-.124-.074-.196-.001-.072.022-.142.067-.199.044-.056.107-.096.177-.112.07-.016.144-.007.208.025zM137.531 278.558c4.298 2.462 8.35 6.891 8.936 11.945 0 .196-.261.222-.352.079-2.568-4.159-5.577-8.029-8.975-11.542-.053-.055-.084-.127-.087-.203-.003-.077.021-.151.069-.21.048-.06.116-.099.192-.112.075-.013.152.003.217.043zM133.48 277.867c4.298 2.462 8.349 6.891 8.936 11.946 0 .195-.248.221-.339.078-2.576-4.153-5.585-8.022-8.975-11.542-.047-.055-.073-.124-.074-.196-.002-.072.022-.142.066-.198.045-.057.107-.097.177-.113.071-.015.144-.007.209.025z"/>
    <path fill="#1B254F" d="M140.8 273.725c.886 4.273 3.596 8.012 5.693 11.724.055.078.129.142.214.186.085.043.179.066.274.066.096 0 .19-.023.275-.066.085-.044.159-.108.214-.186.011.016.025.029.042.039.017.009.036.014.056.014.019 0 .038-.005.055-.014.017-.01.032-.023.042-.039 1.669-4.24 2.19-8.846 1.511-13.352-.443-2.605-2.383-5.823-5.549-5.054-3.165.768-3.348 4.194-2.827 6.682zm1.59-3.777c2.8-4.625 5.353 1.224 5.601 3.165.147 1.258.204 2.525.169 3.791-.107 2.615-.347 5.224-.716 7.816-.912-1.889-1.98-3.7-2.97-5.563-1.186-2.227-3.635-6.669-2.084-9.209z"/>
    <path fill="#1B254F" d="M164.847 290.334c1.068-3.061-1.941-5.315-4.494-6.005-4.416-1.116-9.048-1.048-13.43.195-.02.005-.038.015-.054.028-.015.014-.027.031-.035.05-.007.019-.011.039-.009.06.002.02.009.04.02.057-.082.05-.151.119-.201.201-.049.083-.079.175-.085.271-.006.096.01.192.049.28.038.088.097.165.172.225 3.517 2.449 6.969 5.511 11.137 6.813 2.423.756 5.927.743 6.93-2.175zm-11.958-2.045c-1.759-1.173-3.452-2.41-5.211-3.517 2.606 0 5.211-.17 7.816.065 1.261.088 2.515.262 3.752.521 1.915.443 7.49 3.543 2.605 5.888-2.696 1.328-6.891-1.537-8.962-2.957z"/>
    <path fill="#4E5882" d="M148.981 274.051l32.684 38.715s65.471-79.462 71.385-78.342c2.957.521 25.375 42.519 42.987 49.931 10.956 4.611 27.799.912 38.494-9.119 11.723-10.968 13.912-31.094 13.912-31.094l-50.517-31.264s-4.038 7.113-6.383 6.058c-1.563-.678-24.75-43.678-46.114-40.383-26.105 4.143-96.448 95.498-96.448 95.498z"/>
    <path fill="#1B254F" d="M155.82 270.625c1.133.873 10.252 10.565 12.206 12.779 3.908 4.481 7.816 8.976 11.645 13.561 1.98 2.384 6.266 7.49 6.383 7.816 0 .182-.221.365-.338.234-4.208-4.181-8.194-8.558-12.193-12.922-3.999-4.364-17.104-19.748-17.99-21.233-.039-.078.131-.365.287-.235zM252.906 224.68c1.206.694 2.204 1.697 2.892 2.905 4.447 6.079 8.902 12.115 13.366 18.107 4.168 5.654 8.245 11.398 12.544 16.935 3.569 4.585 7.516 9.118 12.519 12.088 4.889 2.929 10.667 4.006 16.283 3.035 5.595-1.099 10.911-3.315 15.631-6.513 1.173-.742 2.28-1.589 3.374-2.436.092-.065.196.078.105.131-8.507 6.435-19.293 12.101-30.326 8.871-5.38-1.577-9.9-5.211-13.717-9.288-4.19-4.771-8.105-9.777-11.724-14.994-4.455-6.079-8.906-12.119-13.352-18.12-2.149-2.905-4.195-5.927-6.448-8.741-.407-.586-.978-1.039-1.642-1.302-.444-.064-.897-.017-1.32.135-.422.152-.801.405-1.102.738-1.394 1.107-2.723 2.305-4.013 3.53-10.421 9.848-59.674 68.272-60.664 69.679-.104.143-.326 0-.221-.17 7.698-11.528 46.96-56.483 56.561-66.435 2.434-2.521 5.027-4.884 7.763-7.073.423-.489.974-.85 1.591-1.041.617-.191 1.276-.205 1.9-.041z"/>
    <path fill="#EBEBEB" d="M138.951 259.631c-13.756 6.226-26.588 11.659-28.294 11.033-2.775-1.628-35.875-64.585-36.24-67.19-.364-2.606 6.957-3.908 10.161-2.397 3.477 2.207 6.818 4.621 10.004 7.229 7.53 5.823 15.632 12.766 15.632 12.766l7.451-3.243 21.286 41.802z"/>
    <path fill="#E83C4D" d="M73.7 202.171c.405 2.67 33.948 67.972 36.814 69.639 1.068.652 10.851-3.673 22.523-9.236l.364-.182-21.168-42.362-.703.378s-24.008-19.254-27.356-20.765c-3.348-1.511-10.89-.156-10.473 2.528z"/>
    <path fill="#1B254F" d="M76.606 201.61c5.927 10.865 28.801 55.259 33.869 66.436 0 .091 0 .117-.065 0-6.11-10.643-28.659-55.22-33.934-66.436-.157-.143.013-.234.13 0zM109.706 215.34c3.035 3.908 5.093 9.562 3.713 14.447-.066.195-.326.117-.352 0-.806-4.822-2.116-9.547-3.908-14.095-.047-.073-.063-.161-.044-.245.018-.084.069-.158.142-.204.072-.047.16-.063.245-.045.084.019.157.07.204.142zM106.215 213.23c3.035 3.908 5.093 9.562 3.713 14.46 0 .182-.326.104-.352 0-.792-4.83-2.102-9.56-3.908-14.108-.023-.036-.039-.076-.047-.118-.007-.042-.006-.085.003-.127.009-.042.026-.081.05-.116.025-.035.056-.065.092-.089.036-.023.076-.038.118-.046.042-.008.085-.007.127.002.041.009.081.026.116.051.035.024.065.055.088.091zM102.724 211.081c3.035 3.907 5.093 9.548 3.712 14.446 0 .182-.325.104-.351 0-.792-4.825-2.102-9.551-3.908-14.095-.023-.036-.039-.076-.047-.118-.007-.042-.007-.085.003-.127.009-.041.026-.081.05-.116.025-.035.056-.065.091-.088.036-.023.076-.039.119-.047.042-.007.085-.006.126.003.042.009.082.026.117.05.035.025.065.056.088.092z"/>
    <path fill="#1B254F" d="M111.087 210.026c-.808 4.285.26 8.767.781 13.026.019.094.059.181.118.256.059.074.135.134.222.173.086.04.181.058.276.054.095-.005.188-.032.27-.079.012.016.028.029.046.038.018.009.038.014.058.014.021 0 .041-.005.059-.014.018-.009.034-.022.046-.038 3.161-3.269 5.407-7.312 6.513-11.724.586-2.605 0-6.305-3.205-6.8-3.204-.495-4.715 2.593-5.184 5.094zm2.905-2.892c4.364-3.205 4.481 3.178 3.973 5.067-.356 1.217-.791 2.409-1.303 3.569-1.029 2.423-2.384 4.651-3.634 6.957-.13-2.111-.43-4.182-.638-6.292-.222-2.501-.795-7.543 1.602-9.301z"/>
    <path fill="#1B254F" d="M126.992 234.555c2.15-2.436.235-5.667-1.876-7.282-3.661-2.709-7.968-4.412-12.492-4.937-.104 0-.143.065-.143.156-.094.016-.183.054-.259.11-.076.057-.138.131-.18.217-.042.085-.063.179-.061.274.001.095.025.188.07.272 2.319 3.608 4.351 7.751 7.699 10.538 1.954 1.629 5.197 2.944 7.242.652zm-10.317-6.435c-1.172-1.746-2.266-3.544-3.517-5.211 2.461.892 4.874 1.909 7.23 3.048 1.138.56 2.235 1.2 3.283 1.915 1.589 1.134 5.562 6.136.169 6.513-2.97.066-5.745-4.194-7.165-6.265z"/>
    <path fill="#4E5882" d="M113.809 216.265l26.197 45.593s76.609-40.565 83.044-39.288c8.584 1.68 39.535 57.421 66.357 64.247 11.724 2.996 27.225 1.394 38.675-7.933 10.869-8.669 18.134-21.063 20.387-34.781l-37.061-22.731c-3.652 5.45-7.637 10.671-11.932 15.631 0 0-42.466-55.623-69.991-63.269-18.537-5.185-115.676 42.531-115.676 42.531z"/>
    <path fill="#1B254F" d="M305.299 217.412c-.99 2.488-2.058 4.963-2.957 7.49-.417 1.159-.847 2.331-1.146 3.53-.207.5-.284 1.043-.225 1.58.06.538.253 1.051.563 1.494.912.951 1.863.274 2.397-.651.534-.925 1.042-2.189 1.537-3.283.495-1.094 1.147-2.514 1.733-3.751.3-.626.586-1.303.899-1.876 0-.157.729-1.303.872-1.642h-.091c-.009-.015-.014-.033-.014-.052 0-.018.005-.036.014-.052 0-.091.065-.104.17-.117.021 0 .043.006.061.018.018.011.033.028.043.047.117.248 0 .534-.143.795-.222.651-.43 1.302-.652 1.967-.443 1.211-.886 2.436-1.302 3.634l-1.446 3.608c-.278.941-.789 1.797-1.485 2.488-.359.305-.807.485-1.277.513-.47.028-.936-.097-1.329-.356.007.095.007.191 0 .286 0 .274-.143.548-.221.821-.078.274-.17.547-.261.821-.091.273-.104.247-.169.364-.065.118-.195.235-.261.365-.023.045-.061.08-.108.1-.047.02-.099.024-.147.01-.049-.014-.092-.044-.121-.085-.029-.041-.044-.091-.04-.142v-.43c.02-.159.055-.316.104-.469.077-.261.169-.517.273-.768.105-.261.196-.521.3-.769l.247-.417c-.407-.346-.713-.796-.885-1.302-.225-.94-.185-1.923.117-2.84.326-1.107.729-2.202 1.133-3.283.949-2.705 2.134-5.32 3.543-7.816.059-.009.118.003.168.034.051.031.088.079.106.136zM322.233 235.023c-.091 1.303-.273 2.606-.312 3.908-.039 1.303 0 2.606.078 3.908.064 1.243.301 2.47.703 3.648.447 1.122 1.053 2.175 1.798 3.126 1.419 1.877 3.135 3.51 5.08 4.833.985.665 2.012 1.265 3.075 1.798.547.286 1.107.534 1.68.768.472.151.913.385 1.303.69.035.039.06.087.071.138.012.052.009.105-.006.155-.016.05-.045.095-.084.131-.039.036-.086.06-.138.071-.904.02-1.8-.186-2.605-.599-.92-.338-1.813-.748-2.67-1.224-1.736-.967-3.324-2.178-4.716-3.596-1.43-1.375-2.612-2.988-3.491-4.767-.782-1.824-1.135-3.803-1.029-5.784.011-2.452.366-4.89 1.055-7.243-.039-.104.208-.104.208.039zM123.176 215.132c6.265 9.991 21.897 39.679 21.897 40.083 0 .195-.3.299-.391.143-3.178-5.002-21.311-38.35-21.845-40.004-.065-.157.234-.391.339-.222z"/>
    <path fill="#1B254F" d="M346.359 244.754c-6.514 13.092-18.368 31.029-32.423 35.445-13.691 4.299-29.453 1.238-39.783-8.923-6.969-6.852-36.357-42.987-38.754-45.827-1.208-1.439-2.513-2.793-3.908-4.051-1.345-1.303-2.841-2.44-4.455-3.387-1.665-.889-3.613-1.081-5.419-.534-2.163.586-4.273 1.472-6.37 2.227-4.325 1.577-8.611 3.218-12.896 4.898-17.026 6.67-33.765 14.069-50.048 22.393-2.045 1.042-4.065 2.136-6.084 3.23-.13.066 0 .261.131.196 16.83-7.933 33.725-15.697 51.011-22.588 4.343-1.737 8.685-3.413 13.027-5.028l6.513-2.384c2.129-.991 4.381-1.692 6.696-2.084 2.279-.17 4.103 1.302 5.744 2.67 1.41 1.213 2.737 2.519 3.974 3.908 2.605 2.84 30.456 36.474 38.714 45.593 9.666 10.668 25.806 14.824 39.588 11.32 16.687-4.247 29.674-23.448 35.171-36.904.079-.209-.299-.43-.429-.17z"/>
    <path fill="#1B254F" d="M302.407 238.306c-5.797-8.871-15.814-18.693-22.992-26.47-7.221-7.86-15.01-15.179-23.304-21.897-4.664-3.765-9.509-7.23-14.446-10.617-.105-.065-.196.091-.105.156 8.653 6.226 16.891 13.01 24.66 20.309 7.724 7.229 32.123 34.129 35.653 38.923.195.325.743-.078.534-.404zM203.093 229.161c5.211-2.201 10.421-4.22 15.788-5.914 2.163-.69 4.794-1.901 6.852-.312.951.742 15.567 17.989 16.935 20.842 0 .13-.105.287-.222.183-.117-.105-17.69-20.322-18.901-20.4-1.242.071-2.462.353-3.609.834-10.5 3.375-20.748 7.493-30.664 12.323-2.749 1.302-5.497 2.605-8.22 3.999-2.722 1.394-5.575 2.957-8.467 4.155-.06.03-.13.034-.194.012-.063-.022-.115-.068-.145-.129-.029-.06-.033-.13-.011-.193.022-.064.068-.116.129-.145 2.423-1.512 5.041-2.736 7.568-4.039 2.527-1.302 5.093-2.605 7.647-3.908 5.106-2.592 10.265-5.054 15.514-7.308z"/>
    <path fill="#D3D5E0" d="M304.101 198.705l-11.828 20.374s44.185 28.658 57.316 32.149c0 0 10.109-58.059 1.498-77.69-4.311-9.822-12.57-12.023-19.539-8.571-1.746.872-21.116 10.877-25.441 18.159-3.869 6.422-2.006 15.579-2.006 15.579z"/>
    <path fill="#fff" d="M346.567 235.74c0 .338-.1.669-.289.949-.188.281-.455.5-.767.629-.313.129-.657.162-.988.095-.332-.067-.636-.231-.874-.471-.238-.24-.399-.545-.464-.877-.064-.332-.028-.676.103-.987.131-.312.352-.577.634-.763.282-.186.614-.284.952-.281.45.003.881.184 1.198.504.317.32.495.752.495 1.202zm-17.625-1.706c-.338-.003-.669.095-.951.281-.283.186-.503.451-.635.763-.131.311-.166.655-.102.987.064.332.226.637.464.877.238.24.542.404.873.471.332.067.676.034.988-.095.313-.129.58-.348.768-.629.188-.28.289-.611.289-.949 0-.45-.178-.882-.496-1.202-.317-.32-.747-.501-1.198-.504zm7.959 10.772c-.372-.001-.735.123-1.029.352l2.736 1.407c.009-.229-.029-.457-.111-.671-.082-.214-.207-.409-.366-.573-.16-.165-.351-.295-.562-.384-.211-.088-.439-.132-.668-.131zm7.973-31.68c-.338-.003-.67.095-.952.281-.282.186-.503.452-.634.763-.131.312-.167.655-.103.987.065.332.226.638.464.877.238.24.542.404.874.471.331.067.675.034.988-.095.312-.128.579-.347.767-.628.189-.281.289-.611.289-.95 0-.45-.178-.882-.495-1.202-.317-.319-.748-.501-1.198-.504zm-15.932 0c-.338-.003-.669.095-.951.281-.283.186-.503.452-.635.763-.131.312-.166.655-.102.987.064.332.226.638.464.877.238.24.542.404.873.471.332.067.676.034.988-.095.313-.128.58-.347.768-.628.188-.281.289-.611.289-.95 0-.45-.178-.882-.496-1.202-.317-.319-.747-.501-1.198-.504zm-15.931 0c-.338-.003-.669.095-.952.281-.282.186-.503.452-.634.763-.131.312-.167.655-.103.987.065.332.226.638.464.877.239.24.543.404.874.471.331.067.675.034.988-.095.312-.128.58-.347.768-.628.188-.281.288-.611.288-.95 0-.45-.178-.882-.495-1.202-.317-.319-.748-.501-1.198-.504zm-15.932 0c-.338-.003-.669.095-.951.281-.283.186-.503.452-.635.763-.131.312-.166.655-.102.987.064.332.226.638.464.877.238.24.542.404.874.471.331.067.675.034.987-.095.313-.128.58-.347.768-.628.188-.281.289-.611.289-.95 0-.45-.178-.882-.495-1.202-.318-.319-.748-.501-1.199-.504zm55.754 10.773c-.425.037-.821.232-1.11.547-.288.315-.448.726-.448 1.153 0 .427.16.838.448 1.153.289.314.685.51 1.11.547l.352-3.361c-.115-.031-.234-.044-.352-.039zm-15.932 0c-.338 0-.668.1-.949.288-.281.189-.5.456-.628.768-.129.313-.162.657-.095.988.067.332.23.636.47.874.24.238.546.399.878.464.331.064.675.028.987-.103.311-.131.577-.352.763-.634.186-.282.283-.614.281-.952-.004-.45-.185-.881-.505-1.198-.319-.317-.751-.495-1.202-.495zm-15.931 0c-.338 0-.669.1-.949.288-.281.189-.5.456-.629.768-.129.313-.162.657-.095.988.067.332.231.636.471.874.24.238.545.399.877.464.332.064.675.028.987-.103.312-.131.577-.352.763-.634.186-.282.284-.614.281-.952-.001-.226-.048-.45-.137-.658-.089-.208-.218-.396-.381-.554-.162-.157-.354-.281-.565-.364-.211-.082-.436-.122-.662-.117h.039zm-15.931 0c-.45 0-.88.178-1.198.496-.318.318-.496.748-.496 1.197.001.192.036.382.104.561l1.785 1.12c.416-.042.801-.238 1.08-.548.28-.311.433-.715.431-1.133-.003-.45-.185-.881-.504-1.198-.32-.317-.752-.495-1.202-.495zm39.835-31.681c-.338-.002-.67.096-.952.282-.282.186-.503.451-.634.763-.131.311-.167.655-.103.987.065.332.226.637.464.877.238.24.542.404.874.471.331.067.675.034.988-.095.312-.129.579-.348.767-.629.189-.281.289-.611.289-.949 0-.45-.178-.882-.495-1.202-.317-.32-.748-.501-1.198-.505zm-15.932 0c-.338-.002-.669.096-.951.282-.283.186-.503.451-.635.763-.131.311-.166.655-.102.987.064.332.226.637.464.877.238.24.542.404.873.471.332.067.676.034.988-.095.313-.129.58-.348.768-.629.188-.281.289-.611.289-.949 0-.45-.178-.882-.496-1.202-.317-.32-.747-.501-1.198-.505zm-15.931 0c-.338-.002-.669.096-.952.282-.282.186-.503.451-.634.763-.131.311-.167.655-.103.987.065.332.226.637.464.877.239.24.543.404.874.471.331.067.675.034.988-.095.312-.129.58-.348.768-.629.188-.281.288-.611.288-.949 0-.45-.178-.882-.495-1.202-.317-.32-.748-.501-1.198-.505zm39.822 10.76c-.453 0-.887.18-1.207.5-.32.32-.5.754-.5 1.207 0 .452.18.886.5 1.207.32.32.754.499 1.207.499.329 0 .651-.094.928-.272.278-.178.498-.431.635-.731v-1.302c-.118-.321-.331-.599-.61-.796-.279-.198-.611-.306-.953-.312zm-15.932 0c-.337 0-.667.1-.948.288-.28.187-.499.454-.628.766s-.163.655-.097.986c.066.331.228.635.467.874.238.238.542.401.873.467.332.065.675.032.986-.098.312-.129.579-.347.766-.628.188-.281.288-.611.288-.948 0-.453-.18-.887-.5-1.207-.32-.32-.754-.5-1.207-.5zm-15.931 0c-.338 0-.668.1-.948.288-.281.187-.499.454-.629.766-.129.312-.163.655-.097.986.066.331.229.635.467.874.239.238.543.401.874.467.331.065.674.032.986-.098.312-.129.578-.347.766-.628.187-.281.287-.611.287-.948.001-.228-.045-.453-.133-.662-.088-.21-.218-.4-.38-.559-.163-.159-.355-.284-.567-.367-.212-.084-.438-.124-.665-.119h.039zm-15.931 0c-.338 0-.668.1-.949.288-.28.187-.499.454-.628.766s-.163.655-.097.986c.066.331.228.635.467.874.239.238.543.401.874.467.331.065.674.032.986-.098.311-.129.578-.347.765-.628.188-.281.288-.611.288-.948 0-.453-.18-.887-.5-1.207-.32-.32-.754-.5-1.206-.5zm39.835-31.667c-.338-.003-.67.095-.952.281-.282.186-.503.452-.634.763-.131.312-.167.655-.103.987.065.332.226.637.464.877.238.24.542.404.874.471.331.067.675.034.988-.095.312-.129.579-.347.767-.628.189-.281.289-.612.289-.95 0-.45-.178-.882-.495-1.202-.317-.319-.748-.501-1.198-.504zm-15.932 0c-.338-.003-.669.095-.951.281-.283.186-.503.452-.635.763-.131.312-.166.655-.102.987.064.332.226.637.464.877.238.24.542.404.873.471.332.067.676.034.988-.095.313-.129.58-.347.768-.628.188-.281.289-.612.289-.95.001-.223-.041-.445-.126-.652-.084-.207-.208-.395-.366-.553-.157-.159-.344-.285-.551-.371-.206-.086-.427-.13-.651-.13zm24.425 10.851c-.171-.063-.352-.094-.534-.091-.453 0-.887.18-1.207.5-.32.32-.5.754-.5 1.206 0 .453.18.887.5 1.207.32.32.754.5 1.207.5.342.001.677-.099.964-.287-.118-1.042-.3-2.058-.43-3.035zm-16.466-.091c-.337 0-.667.1-.948.287-.28.188-.499.454-.628.766s-.163.655-.097.986c.066.331.228.635.467.874.238.239.542.401.873.467.332.066.675.032.986-.097.312-.129.579-.348.766-.629.188-.28.288-.61.288-.948 0-.452-.18-.886-.5-1.206-.32-.32-.754-.5-1.207-.5zm-15.931 0c-.338 0-.668.1-.948.287-.281.188-.499.454-.629.766-.129.312-.163.655-.097.986.066.331.229.635.467.874.239.239.543.401.874.467.331.066.674.032.986-.097.312-.129.578-.348.766-.629.187-.28.287-.61.287-.948.001-.227-.045-.452-.133-.662-.088-.21-.218-.399-.38-.558-.163-.159-.355-.284-.567-.368-.212-.083-.438-.123-.665-.118h.039zm-14.629.625c-.1.137-.192.281-.273.43-.437.748-.808 1.532-1.108 2.345h.079c.452 0 .886-.18 1.206-.5.32-.32.5-.754.5-1.207 0-.393-.144-.773-.404-1.068zm29.062-19.032c.152.29.385.53.67.69.285.161.611.235.937.215.327-.021.641-.136.903-.331.263-.195.463-.462.578-.769-1.034-.065-2.071 0-3.088.195z"/>
    <path fill="#1B254F" d="M326.246 208.827c-5.22-4.866-11.139-8.923-17.56-12.036-.022-.006-.044-.004-.065.004-.02.009-.038.023-.049.042-.012.019-.017.041-.015.063.001.022.01.043.025.06 5.953 3.908 11.541 8.259 17.455 12.141.17.065.339-.196.209-.274zM315.212 202.223c-.405-.383-.84-.731-1.302-1.042-.503-.3-1.031-.557-1.577-.769-1.149-.382-2.331-.661-3.53-.834-.02.008-.037.021-.049.039-.012.017-.019.038-.019.059 0 .021.007.042.019.06.012.017.029.03.049.038.573.221 1.16.352 1.733.521.573.169 1.107.378 1.641.599.534.222.99.469 1.472.73.482.26 1.016.495 1.498.794.039.078.169-.104.065-.195z"/>
    <path fill="#EB9481" d="M342.477 170.112c-.704.951-8.767 5.667-13.535 3.348-1.55-.768 2.215-9.418 2.215-9.418l.143-.703 1.85-9.822 13.443-2.215 1.915-.247-1.576 5.953c0 .156-.078.312-.13.469-.053.156-.079.378-.131.547-.13.495-.26 1.003-.404 1.498-.143.495-.208.755-.325 1.146-.117.391-.248.782-.352 1.186-.858 2.817-1.898 5.576-3.113 8.258z"/>
    <path fill="#1B254F" d="M346.984 157.008c-1.988 2.129-4.417 3.798-7.117 4.891-2.7 1.094-5.606 1.585-8.515 1.44l1.85-9.822 13.443-2.215 1.915-.247s-.742 2.657-1.576 5.953z" opacity=".32"/>
    <path fill="#EB9481" d="M324.748 137.181c-4.95 16.844 4.585 21.715 8.219 22.784 3.296.964 14.642 3.829 21.312-12.415 6.669-16.244.391-23.864-7.035-26.469-7.425-2.606-17.546-.769-22.496 16.1z"/>
    <path fill="#C95D4C" d="M353.497 146.665c-3.908-.99-2.253-7.139-2.253-7.139s-4.325-1.576-2.762-8.806c-1.241 1.209-2.747 2.112-4.397 2.638-1.65.527-3.401.663-5.112.397-1.303-.143 3.816-2.318 3.816-2.318s-6.331 3.282-15.332-.977c-.638-.3 2.723-10.317 11.06-11.724 3.602-.695 7.331-.242 10.663 1.293s6.099 4.076 7.912 7.265c0 0 4.026 4.052 3.283 9.379-.742 5.328-5.406 10.383-6.878 9.992z"/>
    <path fill="#1B254F" d="M331.352 134.251c.402.056.806.086 1.212.091.436.107.896.061 1.302-.131.112-.08.193-.196.231-.328.038-.132.03-.274-.022-.401-.129-.234-.318-.429-.546-.566-.229-.138-.49-.212-.757-.216-.561-.078-1.131.052-1.602.365-.104.071-.186.169-.236.284-.05.115-.066.242-.047.366.019.124.073.241.155.335.082.095.19.164.31.201zM342.372 137.728c-.365-.173-.721-.364-1.068-.573-.402-.154-.744-.432-.977-.794-.048-.129-.053-.271-.013-.403s.123-.247.235-.327c.243-.128.517-.188.792-.175.275.014.541.101.771.253.513.236.922.654 1.146 1.173.047.122.057.255.028.383s-.094.244-.189.335c-.095.09-.214.15-.343.173-.129.023-.262.008-.382-.045zM338.882 141.311s.078.091 0 .13c-.391 1.133-.665 2.488.247 3.192v.065c-1.185-.587-.808-2.384-.247-3.387z"/>
    <path fill="#1B254F" d="M340.275 140.451c1.876.443.847 4.168-.886 3.751-1.732-.416-.677-4.129.886-3.751z"/>
    <path fill="#1B254F" d="M340.953 140.855c.273.3.482.755.859.899.378.143.899-.117 1.303-.404 0 0 .065 0 0 0-.182.716-.664 1.303-1.446 1.303-.782 0-1.055-.86-1.029-1.629.039-.13.208-.299.313-.169zM332.342 139.11s-.104 0-.117.078c-.274 1.159-.782 2.449-1.941 2.605v.065c1.316.104 1.98-1.602 2.058-2.748z"/>
    <path fill="#1B254F" d="M331.639 137.624c-1.824-.638-2.97 3.035-1.303 3.634 1.667.6 2.827-3.1 1.303-3.634z"/>
    <path fill="#1B254F" d="M330.792 137.624c-.352.104-.756.365-1.107.287-.352-.079-.586-.6-.73-1.056-.234.691-.234 1.499.404 1.85.638.352 1.212-.156 1.602-.794 0-.105-.026-.326-.169-.287zM335.846 150.677c-.338.208-.703.521-1.133.456-.434-.105-.839-.305-1.186-.587 0 0-.078 0 0 0 .11.265.289.495.518.667.23.172.5.279.785.31.25-.012.491-.096.694-.241.203-.146.36-.347.452-.579 0 0-.078-.065-.13-.026zM331.704 147.603c.305.79.807 1.49 1.459 2.032.373.288.83.448 1.302.456 1.004 0 1.303-.821 1.303-1.603.025-.436-.005-.874-.091-1.302-1.244.566-2.639.712-3.973.417z"/>
    <path fill="#FF99BA" d="M333.163 149.635c.374.288.83.448 1.302.456 1.004 0 1.303-.821 1.303-1.603-.5-.133-1.03-.091-1.503.117-.474.208-.862.571-1.102 1.03z"/>
    <path fill="#1B254F" d="M332.056 144.841s-.73 1.641-.964 2.449c0 .078.156.169.43.26.658.328 1.394.469 2.127.407.732-.062 1.434-.324 2.028-.758.078 0 0-.17-.091-.144-1.236.404-2.568.404-3.804 0 0-.247 1.303-2.774 1.238-2.826-.648-.128-1.309-.167-1.967-.118 1.433-3.478 3.413-6.682 4.78-10.16.008-.025.007-.052-.002-.077-.009-.024-.027-.045-.049-.059-.023-.013-.049-.019-.075-.015-.026.003-.051.015-.069.034-2.223 3.382-4.104 6.978-5.615 10.733-.169.43 1.668.313 2.033.274z"/>
    <path fill="#EB9481" d="M351.218 148.019s4.845-4.611 7.008-2.774c2.162 1.836-2.228 9.04-5.302 9.522-.39.091-.794.102-1.188.033-.394-.07-.77-.219-1.105-.438-.335-.219-.622-.504-.844-.838-.221-.333-.373-.708-.445-1.102l1.876-4.403z"/>
    <path fill="#EBEBEB" d="M252.841 331.055l-10.16-79.019 151.524-18.003-27.681 83.097-.743.078-112.94 13.847zm-7.542-76.961l9.574 74.356 109.918-13.47 26.053-78.159-145.545 17.273z"/>
    <path fill="#EBEBEB" d="M278.889 248.978l-2.336.203 6.647 76.281 2.336-.204-6.647-76.28zM317.024 244.088l-4.475 77.601 2.341.135 4.475-77.601-2.341-.135zM355.65 239.305l-14.912 78.992 2.305.435 14.911-78.992-2.304-.435z"/>
    <path fill="#EBEBEB" d="M383.406 261.247l-137.021 15.418.263 2.33 137.021-15.418-.263-2.33zM373.153 292.01L249.23 304.969l.244 2.333 123.923-12.96-.244-2.332z"/>
    <path fill="#455A64" d="M350.553 351.363l-72.18.521 10.005-73.586 51.116-.378 11.059 73.443z"/>
    <path fill="#1B254F" d="M339.494 277.92l-7.491 73.574 18.55-.131-11.059-73.443zM301.743 283.547l-2.605-.43s1.185-7.138 2.462-14.329c1.38-7.725 8.74-11.567 15.058-10.825 4.742.547 10.109 3.986 9.666 11.854-.469 8.428-.925 12.414-.951 12.571l-2.605-.3s.469-4.077.938-12.414c.338-6.044-3.583-8.676-7.36-9.119-2.754-.365-5.543.329-7.804 1.942-2.262 1.613-3.826 4.025-4.376 6.747-1.238 7.178-2.41 14.238-2.423 14.303z"/>
    <path fill="#fff" d="M332.98 350.92c1.472-1.068 3.009-2.045 4.534-3.022 1.524-.977 3.087-1.902 4.65-2.813l.221-.118.196.144c1.303.898 2.462 1.81 3.647 2.774 1.186.964 2.384 1.889 3.544 2.905-1.303-.781-2.606-1.615-3.908-2.462-1.303-.847-2.528-1.719-3.765-2.605h.417c-1.563.938-3.14 1.837-4.729 2.709-1.589.873-3.152 1.72-4.807 2.488z"/>
    <path fill="#fff" d="M342.36 345.41c-.352-4.676-.613-9.366-.873-14.055-.261-4.69-.443-9.38-.665-14.069-.221-4.69-.364-9.392-.495-14.082l-.182-7.047c0-2.345-.091-4.69-.104-7.047.182 2.344.312 4.689.482 7.034l.391 7.034c.26 4.69.442 9.379.664 14.069.221 4.689.365 9.392.495 14.082.13 4.689.247 9.392.287 14.081z"/>
    <path fill="#1B254F" d="M303.996 283.183c.031.687-.144 1.367-.5 1.955-.356.588-.879 1.057-1.502 1.348-.623.291-1.318.391-1.998.287-.68-.104-1.313-.407-1.821-.87-.507-.464-.866-1.068-1.03-1.736-.165-.668-.128-1.369.106-2.015.234-.647.655-1.21 1.208-1.617.554-.408 1.216-.643 1.903-.674.457-.021.913.048 1.343.204.43.155.826.394 1.163.703.338.308.611.681.805 1.095.193.414.303.863.323 1.32zM327.301 282.153c.03.688-.144 1.369-.501 1.957-.357.589-.88 1.058-1.504 1.349-.624.291-1.32.39-2 .285-.68-.105-1.314-.409-1.821-.874-.507-.466-.865-1.071-1.028-1.739-.163-.669-.124-1.371.112-2.017.236-.647.658-1.209 1.214-1.615.555-.406 1.219-.638 1.906-.667.457-.021.913.048 1.342.204.429.156.823.395 1.16.703.336.309.609.681.801 1.096.192.414.3.862.319 1.318z"/>
    <path fill="#E83C4D" d="M338.79 370.942l-82.171-14.082 26.327-81.65 58.202 9.979-2.358 85.753z"/>
    <path fill="#000" d="M341.148 285.188l-23.461 82.133 21.116 3.621 2.345-85.754z" opacity=".1"/>
    <path fill="#1B254F" d="M298.343 283.795l-2.475-.99c0-.066 2.722-6.839 5.523-13.665 3.035-7.373 11.19-9.614 17.325-7.517 4.586 1.564 9.184 6.149 7.048 13.874-2.28 8.284-3.596 12.14-3.661 12.297l-2.475-.808s1.303-3.908 3.609-12.141c1.641-5.94-1.681-9.405-5.354-10.655-2.661-.955-5.585-.864-8.181.253-2.597 1.117-4.673 3.177-5.81 5.765-2.84 6.748-5.523 13.521-5.549 13.587z"/>
    <path fill="#fff" d="M318.899 366.878c1.902-.912 3.843-1.72 5.771-2.514 1.927-.795 3.908-1.537 5.875-2.254l.273-.104.195.208c1.212 1.303 2.423 2.606 3.583 3.908 1.159 1.303 2.331 2.606 3.426 4.025-1.303-1.146-2.606-2.357-3.908-3.582-1.303-1.224-2.514-2.475-3.752-3.725l.469.104c-1.954.742-3.908 1.433-5.914 2.11-2.006.677-3.986 1.277-6.018 1.824z"/>
    <path fill="#fff" d="M330.688 362.54c.56-5.393 1.211-10.786 1.862-16.166.652-5.38 1.407-10.76 2.111-16.14.703-5.38 1.485-10.747 2.292-16.114l1.225-8.037c.443-2.683.847-5.367 1.303-8.037-.261 2.709-.587 5.393-.886 8.089l-.977 8.09c-.665 5.38-1.394 10.746-2.097 16.126-.704 5.38-1.499 10.747-2.306 16.114-.808 5.367-1.602 10.708-2.527 16.075z"/>
    <path fill="#1B254F" d="M300.597 283.899c-.119.691-.439 1.331-.922 1.84-.482.508-1.104.862-1.788 1.017-.683.155-1.397.104-2.052-.147-.654-.251-1.219-.69-1.624-1.263-.405-.572-.63-1.251-.649-1.952-.018-.701.172-1.391.546-1.984.374-.593.915-1.061 1.555-1.346.64-.285 1.351-.374 2.042-.255.925.159 1.75.679 2.292 1.446.543.767.758 1.718.6 2.644zM324.07 287.924c-.118.691-.439 1.331-.921 1.839-.482.509-1.104.863-1.788 1.018-.683.155-1.398.104-2.052-.147-.654-.251-1.22-.691-1.624-1.263-.405-.572-.631-1.252-.649-1.952-.018-.701.171-1.391.545-1.984s.916-1.061 1.556-1.346c.64-.286 1.351-.374 2.041-.256.46.078.899.245 1.293.493.394.247.736.571 1.005.951.268.38.459.81.561 1.264.102.454.114.924.033 1.383z"/>
    <path fill="#EB9481" d="M354.031 175.14c14.329 14.811 27.356 40.513 25.22 49.345-2.475 10.421-24.334 29.83-36.839 37.373-3.309 1.993-18.693-28.424-15.254-30.704 6.63-4.364 22.731-13.873 24.75-17.351.677-1.211-7.308-21.676-9.796-34.911-1.824-9.327 3.478-12.505 11.919-3.752z"/>
    <path fill="#EB9481" d="M298.656 259.331c.385.853 1.022 1.569 1.825 2.051.803.482 1.734.707 2.669.645-.277 1.568.009 3.183.807 4.56 1.511 2.37 5.875 1.029 5.875 1.029.055 1.686.618 3.316 1.615 4.676 1.681 2.123 6.279 1.407 6.279 1.407.91 1.518 2.333 2.659 4.012 3.218 4.547 1.302 9.914-3.531 13.366-6.514s10.707-9.626 12.258-11.724l-17.977-29.01s-20.986 10.565-24.529 14.72c-2.996 3.518-7.542 11.607-6.2 14.942z"/>
    <path fill="#1B254F" d="M302.993 261.532c2.28-4.468 5.758-8.024 9.041-11.723.065-.092.195 0 .13.117-3.309 3.686-5.823 7.985-8.975 11.789-.012.013-.027.023-.043.03-.016.008-.033.012-.05.012-.018.001-.035-.002-.052-.008-.016-.006-.031-.016-.044-.028-.013-.012-.023-.026-.031-.042-.007-.016-.011-.033-.012-.051 0-.017.003-.035.009-.051.006-.017.015-.032.027-.045zM309.65 267.264c.619-.963 1.363-1.839 2.214-2.605.834-.873 1.694-1.733 2.606-2.605 1.737-1.737 3.521-3.383 5.354-4.937.091-.078.221 0 .13.117-1.737 1.676-3.439 3.413-5.106 5.211l-2.476 2.605c-.721.893-1.538 1.706-2.435 2.423-.014.019-.031.034-.051.047-.02.012-.042.02-.065.024-.023.003-.047.002-.069-.003-.023-.006-.044-.016-.063-.029-.019-.014-.035-.031-.047-.051-.012-.02-.02-.042-.024-.065-.003-.023-.002-.046.003-.069.005-.023.015-.044.029-.063zM317.805 273.621c.566-.869 1.28-1.632 2.11-2.254l2.41-2.267c1.615-1.537 3.217-3.061 4.767-4.637.017-.01.037-.015.057-.013.019.001.038.009.053.023.014.013.024.03.028.05.004.019.001.039-.007.057-1.576 1.616-3.114 3.244-4.703 4.846-.764.782-1.546 1.563-2.345 2.345-.646.78-1.426 1.437-2.305 1.941l-.065-.091z"/>
    <path fill="#D3D5E0" d="M376.762 207.016l-26.886 7.543s-7.503-24.842-8.884-37.165c-1.134-10.056 4.78-13.313 14.238-2.866 8.962 9.914 21.532 32.488 21.532 32.488z"/>
    <path fill="#1B254F" d="M370.77 203.252c-6.753 2.493-13.652 4.568-20.66 6.213-.078 0-.117-.117 0-.143 1.85-.456 12.128-4.012 20.66-6.227.065-.026.104.118 0 .157z"/>
    <path fill="#fff" d="M362.498 193.925c0 .338-.1.669-.288.949-.188.281-.455.5-.768.629s-.656.162-.988.095c-.331-.067-.635-.231-.873-.471-.238-.24-.4-.545-.464-.877-.065-.332-.029-.675.102-.987.131-.312.352-.577.634-.763.283-.186.614-.284.952-.281.45.003.881.184 1.198.504.317.32.495.752.495 1.202zm-17.624-1.706c-.344.003-.679.107-.964.299.247 1.029.508 2.071.768 3.088.065.012.131.012.196 0 .452 0 .886-.18 1.206-.5.32-.32.5-.754.5-1.207 0-.453-.18-.887-.5-1.207-.32-.32-.754-.499-1.206-.499v.026zm23.89 10.76c-.337 0-.667.1-.948.287-.281.188-.499.454-.628.766-.13.312-.163.655-.097.986.065.331.228.635.467.874.238.238.542.401.873.467.331.065.674.032.986-.097.312-.13.579-.348.766-.629.188-.281.288-.611.288-.948 0-.453-.18-.887-.5-1.207-.32-.32-.754-.499-1.207-.499zm-15.931 0c-.338 0-.668.1-.948.287-.281.188-.5.454-.629.766s-.163.655-.097.986c.066.331.228.635.467.874.239.238.543.401.874.467.331.065.674.032.986-.097.312-.13.578-.348.766-.629.187-.281.287-.611.287-.948 0-.453-.18-.887-.5-1.207-.32-.32-.754-.499-1.206-.499zm-7.959-31.668c-.338-.002-.67.095-.952.281-.282.186-.503.452-.634.763-.131.312-.167.656-.103.987.065.332.226.638.464.878.238.239.542.403.874.47.331.067.675.034.988-.095.312-.128.579-.347.768-.628.188-.281.288-.611.288-.949 0-.451-.178-.883-.495-1.203-.317-.319-.748-.5-1.198-.504zm7.959 10.76c-.338 0-.668.1-.948.288-.281.187-.5.454-.629.765-.129.312-.163.655-.097.986.066.331.228.635.467.874.239.239.543.401.874.467.331.066.674.032.986-.097.312-.129.578-.348.766-.628.187-.281.287-.611.287-.949 0-.452-.18-.886-.5-1.206-.32-.32-.754-.5-1.206-.5z"/>
    <path fill="#EBEBEB" d="M367.266 409.357c2.605.821 75.202-.117 77.951-1.915 1.055-.664 1.537-11.255 1.745-24.073v-.404c0-2.605.091-5.366.091-8.115v-1.146l-47.338.13v1.485l.287 7.725v.794s-27.643 12.805-30.456 15.098c-2.814 2.293-4.833 9.614-2.28 10.421z"/>
    <path fill="#E83C4D" d="M367.266 409.357c1.576.508 29.713.339 51.754-.273 13.769-.378 25.141-.951 26.197-1.642 1.055-.69 1.524-10.955 1.732-23.539v-.534-.403l-46.895.078v.807s-27.656 12.792-30.456 15.085c-2.801 2.293-4.885 9.614-2.332 10.421z"/>
    <path fill="#141C3C" d="M368.048 406.53c12.245-.456 61.68-1.159 73.821-.677.091 0 .091.065 0 .078-12.128.717-61.563 1.016-73.821.795-.222 0-.222-.183 0-.196zM394.869 383.252c4.807-.964 10.708-.3 14.434 3.087.143.13 0 .326-.196.287-4.625-1.426-9.389-2.352-14.212-2.762-.071-.011-.136-.047-.184-.101-.048-.054-.076-.122-.079-.194-.003-.072.019-.143.062-.201.043-.058.105-.099.175-.116zM391.417 385.388c4.807-.964 10.708-.299 14.434 3.088.143.13 0 .338-.196.286-4.626-1.424-9.39-2.354-14.212-2.775-.065-.016-.124-.053-.166-.105-.043-.052-.068-.117-.071-.184-.003-.068.016-.134.054-.19.038-.056.093-.098.157-.12zM387.965 387.538c4.807-.964 10.708-.3 14.434 3.087.143.13 0 .326-.196.287-4.624-1.43-9.389-2.361-14.212-2.775-.079.003-.157-.025-.215-.079-.059-.053-.094-.128-.097-.208-.004-.079.024-.157.078-.215.054-.059.129-.094.208-.097z"/>
    <path fill="#141C3C" d="M390.714 379.657c3.439 2.605 7.894 3.634 11.893 5.054.417.143.729-.247.743-.612.02-.003.039-.01.057-.021.017-.011.032-.026.043-.043.011-.018.018-.037.021-.058.003-.02.002-.041-.004-.06-1.523-4.247-4.132-8.02-7.569-10.943-2.032-1.667-5.575-2.787-7.438-.156-1.863 2.631.209 5.354 2.254 6.839zm-1.303-3.908c-.925-5.276 4.794-2.605 6.24-1.303.931.85 1.801 1.764 2.605 2.736 1.624 2.019 3.146 4.119 4.559 6.292-1.928-.821-3.908-1.472-5.849-2.215-2.305-.834-6.995-2.553-7.529-5.471l-.026-.039z"/>
    <path fill="#141C3C" d="M419.463 376.374c-1.211-2.996-4.911-2.709-7.281-1.563-4.016 2.053-7.422 5.125-9.875 8.91-.016.011-.029.025-.038.042-.009.017-.014.036-.014.056 0 .019.005.038.014.055.009.017.022.032.038.042-.029.091-.037.187-.021.281.016.094.054.182.112.258.058.076.133.136.219.176.087.04.182.059.277.054 4.22-.469 8.793-.43 12.74-2.175 2.37-1.03 4.963-3.309 3.829-6.136zm-10.251 6.305c-2.072.273-4.143.456-6.201.807 1.874-1.793 3.839-3.489 5.888-5.08 1.022-.762 2.097-1.45 3.217-2.058 1.707-.912 7.816-2.228 5.771 2.696-1.224 2.71-6.213 3.296-8.675 3.635zM374.131 396.865c1.364-.056 2.725.172 3.997.67 1.271.498 2.425 1.254 3.389 2.222 1.743 1.727 2.756 4.059 2.827 6.513 0 .078-.13.078-.143 0-.451-2.424-1.676-4.637-3.492-6.304-1.816-1.668-4.124-2.702-6.578-2.945-.021 0-.041-.008-.055-.023-.015-.015-.023-.034-.023-.055 0-.021.008-.041.023-.055.014-.015.034-.023.055-.023zM438.716 394.728c5.511 0 5.615 8.494.092 8.559-5.524.065-5.615-8.494-.092-8.559z"/>
    <path fill="#141C3C" d="M419.02 409.084c13.769-.378 25.142-.951 26.197-1.642 1.055-.69 1.524-10.955 1.732-23.539-5.653 5.042-19.67 17.534-27.929 25.181z"/>
    <path fill="#212E63" d="M461.787 126.76s-10.904 122.775-12.688 132.141c-.417 2.136-.665 13.743-.834 28.658-.378 32.567-.156 91.186-.156 91.186h-51.208s1.512-101.698 3.778-120.417c2.267-18.719 16.765-131.568 16.765-131.568h44.343z"/>
    <path fill="#141C3C" d="M399.207 369.835c7.998-.17 5.693-.235 13.691-.313 3.908 0 29.622-.261 33.27.352.02 0 .04.008.055.022.015.015.023.035.023.056 0 .02-.008.04-.023.055s-.035.023-.055.023c-3.661.612-29.362.391-33.27.352-7.998-.079-5.693-.144-13.691-.313-.031 0-.061-.012-.083-.034-.022-.022-.034-.052-.034-.083 0-.031.012-.061.034-.083.022-.022.052-.034.083-.034zM438.378 311.736c.069-7.425.126-14.854.169-22.288 0-7.191 0-14.394.391-21.585.69-14.55 3.634-28.867 5.745-43.261 2.11-14.394 3.908-28.841 5.432-43.3 1.784-16.231 3.361-32.475 5.028-48.719 0-.117.182-.104.169 0-2.41 28.997-5.106 57.981-9.118 86.808-.999 7.165-2.093 14.317-3.283 21.455-1.185 7.23-2.384 14.473-2.944 21.78-.56 7.308-.651 14.33-.729 21.507-.079 7.425-.152 14.846-.222 22.263-.156 16.491-.312 41.88-.482 58.371 0 .313-.495.3-.495 0 .13-14.759.235-38.363.339-53.031z"/>
    <path fill="#141C3C" d="M472.585 126.76s-21.702 122.775-23.447 132.141c-.417 2.136-.665 13.743-.834 28.658L423.84 126.76h48.745z"/>
    <path fill="#EBEBEB" d="M426.745 413.682c2.605.651 75.007-5.445 77.612-7.425 1.003-.73.73-11.333 0-24.138v-.404c-.143-2.605-.3-5.354-.482-8.102l-.078-1.134-47.195 3.478.156 1.472.834 7.686.091.795s-26.678 14.733-29.31 17.208c-2.631 2.475-4.233 9.939-1.628 10.564z"/>
    <path fill="#E83C4D" d="M426.745 413.682c2.605.651 75.007-5.445 77.612-7.425 1.003-.73.73-11.333 0-24.138v-.404l-46.765 3.4.091.794s-26.678 14.733-29.31 17.208c-2.631 2.475-4.233 9.94-1.628 10.565z"/>
    <path fill="#141C3C" d="M427.331 410.816c12.18-1.303 61.433-5.523 73.574-5.914.091 0 .104.065 0 .078-12.036 1.576-61.329 5.38-73.561 6.032-.26.013-.273-.17-.013-.196zM452.42 385.688c4.729-1.303 10.669-1.055 14.629 2.058.143.117 0 .339-.182.299-4.701-1.092-9.504-1.677-14.329-1.745-.079.009-.157-.012-.221-.059-.063-.047-.106-.116-.121-.193s0-.157.042-.224c.041-.067.106-.116.182-.136zM449.125 388.072c4.728-1.303 10.668-1.055 14.628 2.058.157.117 0 .339-.182.3-4.701-1.091-9.504-1.681-14.329-1.759-.08.015-.162-.001-.229-.046-.067-.046-.114-.116-.129-.195-.016-.08.001-.162.046-.229s.115-.114.195-.129zM445.842 390.456c4.729-1.303 10.656-1.056 14.616 2.058.156.117 0 .338-.183.299-4.7-1.091-9.504-1.68-14.329-1.758-.039.007-.079.006-.118-.003-.039-.009-.076-.025-.109-.048s-.06-.052-.082-.086c-.021-.034-.036-.071-.042-.111-.007-.039-.006-.079.002-.118.009-.039.025-.076.048-.109s.053-.06.086-.082c.034-.021.072-.036.111-.042z"/>
    <path fill="#141C3C" d="M448.017 382.405c3.622 2.345 8.142 3.062 12.232 4.195.417.117.717-.3.704-.664.019-.005.037-.013.052-.025.016-.012.028-.027.037-.045.009-.017.014-.036.014-.056 0-.02-.004-.039-.012-.057-1.809-4.146-4.68-7.741-8.324-10.421-2.136-1.511-5.758-2.384-7.425.365-1.668 2.748.612 5.328 2.722 6.708zm-1.537-3.764c-1.302-5.211 4.599-2.905 6.136-1.733.985.802 1.912 1.673 2.774 2.605 1.765 1.897 3.43 3.884 4.989 5.954-1.967-.678-3.986-1.186-5.979-1.798-2.383-.782-7.216-2.162-7.92-5.028z"/>
    <path fill="#141C3C" d="M476.467 377.091c-1.42-2.905-5.093-2.358-7.36-1.042-3.865 2.332-7.049 5.638-9.235 9.587-.009.019-.013.039-.013.059.001.021.005.041.014.059.008.019.021.035.036.049.016.013.034.023.054.029-.022.091-.021.187.002.278.023.091.068.175.131.246.062.07.141.124.229.158.088.033.183.045.276.034 4.168-.756 8.728-1.055 12.545-3.074 2.227-1.186 4.663-3.648 3.321-6.383zm-9.77 7.008c-2.045.43-4.103.742-6.135 1.303 1.811-1.863 3.53-3.804 5.51-5.485.951-.821 1.951-1.582 2.996-2.279 1.642-1.029 7.712-2.788 5.966 2.279-.977 2.736-5.901 3.674-8.337 4.182zM431.552 401.112c1.354-.172 2.729-.062 4.038.324 1.309.385 2.525 1.038 3.569 1.916 1.887 1.569 3.1 3.803 3.387 6.24 0 .078-.13.091-.143 0-.662-2.375-2.076-4.471-4.03-5.974-1.954-1.503-4.343-2.332-6.808-2.363-.015-.005-.027-.014-.037-.026-.01-.012-.016-.026-.017-.041-.001-.016.002-.031.009-.045.007-.013.018-.024.032-.031zM495.707 393.387c5.485-.534 6.331 7.985.847 8.519-5.484.534-6.279-7.972-.847-8.519z"/>
    <path fill="#212E63" d="M455.521 381.533l51.168-2.176s-13.965-112.288-14.225-119.192c-.664-17.899-12.571-133.496-12.571-133.496h-62.527s3.908 26.691 10.682 43.6c4.513 1.596 8.873 3.597 13.026 5.979 0 0 5.849 76.439 6.071 85.975.521 18.849 8.376 119.31 8.376 119.31z"/>
    <path fill="#141C3C" d="M456.888 372.154c7.973-.508 5.68-.482 13.665-.899 3.908-.196 29.57-1.511 33.244-1.055.091 0 .091.143 0 .156-3.621.756-29.31 1.628-33.231 1.759-7.985.26-5.692.091-13.691.26-.018.005-.036.006-.055.002-.018-.004-.035-.012-.05-.024-.014-.011-.026-.026-.033-.043-.008-.018-.011-.036-.01-.055.001-.018.007-.036.016-.053.01-.016.023-.029.039-.039.015-.01.033-.016.052-.018.018-.001.037.002.054.009zM475.308 133.521c2.332 29.114 4.702 58.229 7.373 87.278 2.67 29.049 5.797 58.333 9.613 87.395 2.124 16.231 4.482 39.079 6.996 55.271 0 .104-.144.156-.17 0-5.145-28.749-8.936-64.416-12.166-93.439-3.231-29.023-5.862-58.098-8.207-87.199-1.303-16.466-2.54-32.931-3.804-49.397-.013-.156.352-.156.365.091zM425.859 169.109c5.301 1.933 10.423 4.326 15.306 7.152.183.104.066.404-.143.312-5.21-2.214-10.421-4.337-15.449-6.825-.085-.038-.151-.108-.184-.195-.033-.087-.03-.183.008-.268.038-.084.108-.151.195-.184.086-.033.183-.03.267.008zM424.218 133.729c0-.169.326-.208.326 0 0 6.123.351 11.516.859 17.235.248 2.605 2.384 17.338 6.983 16.257.768-.17 1.172-.938 1.302-2.098-.017-1.517-.222-3.027-.612-4.494-.508-3.074-.925-6.161-1.185-9.262-.539-5.779-.478-11.598.182-17.364.01-.032.029-.061.056-.081.027-.02.06-.031.094-.031.033 0 .066.011.093.031.027.02.047.049.057.081-.132 8.014.339 16.026 1.406 23.969.574 3.817 2.502 9.574-1.498 10.16-3.999.587-6.695-9.027-7.19-11.723-1.27-7.491-1.564-15.114-.873-22.68z"/>
    <path fill="#141C3C" d="M432.268 167.598c.409.988.753 2.002 1.029 3.035.296.8.442 1.648.43 2.501 0 .17-.221.183-.312.079-.48-.753-.84-1.574-1.068-2.436-.352-.951-.73-1.876-1.043-2.827-.046-.128-.04-.269.017-.392.058-.124.162-.219.29-.266.127-.047.268-.041.392.017.123.057.219.161.265.289z"/>
    <path fill="#E83C4D" d="M436.111 254.147l-72.088-3.531 14.107-72.909 51.064 2.501 6.917 73.939z"/>
    <path fill="#E83C4D" d="M429.194 180.208l-11.606 73.04 18.523.898-6.917-73.938z"/>
    <path fill="#000" d="M429.194 180.208l-11.606 73.04 18.523.898-6.917-73.938z" opacity=".1"/>
    <path fill="#141C3C" d="M391.183 183.712l-2.606-.573c0-.078 1.59-7.073 3.257-14.121 1.811-7.633 9.379-11.059 15.632-9.965 4.702.808 9.874 4.546 8.988 12.388-.938 8.376-1.628 12.324-1.654 12.493l-2.605-.456s.703-4.038 1.641-12.336c.677-6.018-3.087-8.858-6.839-9.51-2.728-.519-5.551.016-7.899 1.498-2.348 1.483-4.046 3.801-4.75 6.488-1.576 7.047-3.152 14.016-3.165 14.094z"/>
    <path fill="#fff" d="M418.63 252.726c1.537-.977 3.113-1.876 4.702-2.761 1.589-.886 3.192-1.733 4.807-2.541l.221-.117.183.156c1.185.977 2.358 1.941 3.491 2.97 1.133 1.03 2.28 2.033 3.374 3.101-1.303-.847-2.514-1.759-3.726-2.671-1.211-.912-2.423-1.862-3.608-2.813h.404c-1.603.846-3.231 1.654-4.859 2.436-1.629.781-3.335 1.563-4.989 2.24z"/>
    <path fill="#fff" d="M428.269 247.75c-.091-4.689-.091-9.392-.078-14.081.013-4.69.078-9.392.117-14.095.039-4.703.17-9.392.3-14.082l.208-7.047c.091-2.345.17-4.69.287-7.034 0 2.344.065 4.702.091 7.047v7.047c0 4.69-.078 9.392-.117 14.082-.039 4.69-.17 9.392-.3 14.082-.13 4.689-.273 9.392-.508 14.081z"/>
    <path fill="#141C3C" d="M393.384 183.464c-.008.688-.219 1.358-.608 1.926-.388.568-.936 1.007-1.575 1.263-.638.256-1.338.317-2.011.176-.674-.142-1.29-.48-1.77-.972-.481-.492-.806-1.116-.932-1.792-.127-.676-.05-1.374.22-2.007.271-.632.722-1.17 1.299-1.546.576-.376 1.25-.572 1.938-.565.457.005.908.1 1.328.28.42.179.801.44 1.12.767.32.326.571.712.742 1.136.17.424.254.878.249 1.334zM416.78 183.751c-.021.688-.246 1.354-.646 1.914-.4.561-.957.99-1.601 1.233-.643.244-1.345.29-2.015.135-.671-.156-1.28-.506-1.751-1.008-.471-.502-.783-1.133-.895-1.812-.112-.679-.021-1.376.263-2.003.284-.627.748-1.156 1.332-1.519.585-.363 1.264-.545 1.952-.522.457.011.907.114 1.324.301.417.187.792.454 1.105.788.312.333.556.725.716 1.153.16.428.233.883.216 1.34z"/>
    <path fill="#DBDBDB" d="M451.105 250.316l-74.72 7.269 3.504-77.156 52.913-5.145 18.303 75.032z"/>
    <path fill="#D3D5E0" d="M432.803 175.284l-.899 76.908 19.201-1.876-18.302-75.032z"/>
    <path fill="#141C3C" d="M395.299 184.22l-2.384-.261c0-.065.743-6.591 1.563-13.182.447-3.124 2.064-5.96 4.524-7.936s5.578-2.944 8.724-2.707c4.364.274 9.445 3.165 9.419 10.421 0 7.738-.248 11.398-.261 11.555l-2.384-.157s.235-3.751.248-11.398c0-5.549-3.687-7.816-7.165-7.985-2.537-.203-5.057.565-7.049 2.149-1.993 1.584-3.31 3.866-3.685 6.383-.82 6.54-1.55 13.053-1.55 13.118z"/>
    <path fill="#fff" d="M432.854 251.502c1.433-1.237 2.931-2.397 4.416-3.556 1.486-1.159 3.023-2.254 4.573-3.335l.208-.156.222.13c1.302.821 2.709 1.654 4.025 2.527 1.316.873 2.605 1.746 3.908 2.697-1.446-.691-2.853-1.433-4.247-2.202-1.394-.768-2.761-1.537-4.129-2.345h.43c-1.537 1.108-3.075 2.176-4.651 3.231-1.576 1.055-3.113 2.019-4.755 3.009z"/>
    <path fill="#fff" d="M442.077 244.924c-.794-4.82-1.511-9.653-2.214-14.486-.704-4.833-1.303-9.678-2.006-14.511-.704-4.833-1.303-9.692-1.824-14.538l-.847-7.282c-.247-2.423-.534-4.846-.755-7.282.404 2.41.755 4.82 1.146 7.23l1.068 7.256c.704 4.833 1.303 9.679 2.006 14.511.704 4.833 1.303 9.692 1.824 14.538.521 4.846 1.12 9.731 1.602 14.564z"/>
    <path fill="#141C3C" d="M397.279 183.777c.064.629-.06 1.263-.356 1.821-.297.558-.752 1.016-1.309 1.315-.557.299-1.19.426-1.819.365s-1.226-.308-1.715-.709c-.489-.401-.847-.938-1.03-1.543-.184-.605-.183-1.251.001-1.855.185-.605.544-1.141 1.034-1.541.49-.4 1.087-.646 1.716-.706.416-.041.836 0 1.236.121.399.121.772.32 1.095.585.323.265.59.591.787.959.197.369.319.772.36 1.188zM418.63 181.706c.061.629-.065 1.261-.363 1.818-.298.557-.755 1.013-1.313 1.31-.557.297-1.19.422-1.818.359-.629-.063-1.225-.311-1.712-.712-.488-.402-.845-.939-1.027-1.544-.182-.605-.18-1.25.005-1.854.185-.604.545-1.14 1.034-1.539.49-.399 1.087-.644 1.716-.704.841-.08 1.679.177 2.331.714.652.538 1.064 1.311 1.147 2.152z"/>
    <path fill="#AD6359" d="M435.173 62.149c-5.458 10.42-25.727 47.924-40.199 49.11-8.715.716-39.471-11.724-46.401-16.192-8.115-5.21 10.838-25.337 16.257-23.604 6.696 2.15 25.285 11.046 29.427 10.708 3.713-.313 13.339-13.027 32.423-27.877 9.809-7.608 13.196-1.094 8.493 7.855z"/>
    <path fill="#AD6359" d="M349.368 95.562c-2.853-1.081-15.45-7.19-18.576-9.679-3.126-2.488-11.594-10.29-9.939-12.883 1.654-2.593 4.325-.495 4.325-.495s-3.062-3.908-1.147-6.318c1.915-2.41 5.94.938 5.94.938s-2.853-4.208-.768-6.513c2.084-2.306 5.575 1.771 5.575 1.771s-2.788-3.712-.274-4.898c3.023-1.42 7.387 6.005 11.034 8.493.834.56 17.651 10.24 17.651 10.24l-13.821 19.344z"/>
    <path fill="#141C3C" d="M334.465 62.045c3.218 5.458 5.576 7.281 11.125 10.134.017.015.028.034.033.056.005.021.003.044-.006.064-.008.02-.023.037-.042.048-.019.012-.041.017-.063.015-5.68-2.306-8.962-4.169-11.32-10.174-.117-.3.117-.404.273-.143zM329.724 66.682c3.908 5.367 6.383 7.373 11.971 10.786.078 0 0 .195-.078.143-5.771-2.879-9.001-4.82-12.128-10.695-.143-.26.065-.481.235-.234zM325.464 72.66c4.09 4.938 6.774 7.257 12.636 9.875.029.012.052.035.065.065.012.029.012.062 0 .091-.012.03-.035.053-.065.065-.029.013-.062.013-.091 0-5.37-1.521-9.923-5.097-12.675-9.952-.209-.338-.131-.443.13-.143z"/>
    <path fill="#AD6359" d="M368.907 75.162c-1.347-3.588-2.958-7.071-4.819-10.421-1.967-2.983-13.392-11.385-15.346-9.014-2.527 3.048 3.114 9.196 6.266 11.854 0 0-5.836 7.047-2.748 12.336 3.087 5.289 16.647-4.755 16.647-4.755z"/>
    <path fill="#141C3C" d="M348.287 56.834c-.287 4.442 4.077 7.646 6.956 10.421.042.04.073.091.093.147.019.055.025.114.017.172-.007.058-.028.114-.061.162-.033.05-.076.09-.127.118-2.254 3.127-4.521 8.18-3.166 12.01.01.023.011.049.003.072-.009.023-.026.042-.048.052-.023.01-.049.012-.072.003-.023-.008-.042-.026-.052-.048-2.006-3.908-.183-9.119 2.501-12.323-2.983-2.827-7.23-6.24-6.084-10.825.04 0 .04.013.04.039z"/>
    <path fill="#E83C4D" d="M402.894 71.567L423.84 87.38s9.992-14.33 13.535-27.356c3.543-13.026-7.295-10.72-14.655-4.924-7.36 5.797-19.826 16.466-19.826 16.466z"/>
    <path fill="#141C3C" d="M425.625 82.978c-6.197-4.26-12.122-8.903-17.742-13.9-.078 0 0-.169.104-.103 1.511 1.302 10.734 7.933 17.755 13.886.078.065-.026.182-.117.117z"/>
    <path fill="#141C3C" d="M437.349 59.96c-3.543 13.144-13.535 27.355-13.535 27.355l-9.639-7.281c5.21-8.715 13.782-22.784 18.015-29.61 4.299-.52 7.282 1.746 5.159 9.536z" opacity=".32"/>
    <path fill="#E83C4D" d="M410.696 143.238c1.212 1.186 73.235.482 73.587 0 .964-1.302-10.069-47.755-18.354-65.38-10.617-22.588-16.231-24.463-19.54-25.727-4.286-1.602-15.502-.938-17.325-.104-2.084.925-7.373 11.49-9.848 19.865-5.002 16.844-9.562 70.304-8.52 71.346z"/>
    <path fill="#141C3C" d="M482.264 131.632h-71.216c0-.599.091-1.224.143-1.849h70.643c.157.638.3 1.25.43 1.849zM478.981 118.202h-66.773c0-.612.117-1.225.182-1.85h66.161c.105.625.274 1.29.43 1.85zM481.157 126.669h-69.718c.143-1.706.3-3.504.482-5.367h67.855c.469 1.85.912 3.648 1.381 5.367z"/>
    <path fill="#AD6359" d="M457.709 67.542c5.901 21.402 12.388 46.895 8.572 55.662-5.771 13.378-25.22 25.766-33.765 30.469-3.556 1.967-22.653-23.63-18.823-25.675 8.154-4.364 25.988-13.222 27.277-15.554 1.29-2.332 2.084-24.855 2.84-42.532.873-21.246 10.447-14.798 13.899-2.37z"/>
    <path fill="#AD6359" d="M417.965 125.458s-10.616 6.291-17.377 10.733c-3.765 2.475-9.848 7.295-11.724 10.422-2.892 4.624-12.049 25.779-6.969 28.098 4.598 2.11 10.161-17.065 10.161-17.065s-7.321 18.862-1.303 20.373c6.018 1.512 9.405-20.972 9.405-20.972s-7.086 19.54-.638 20.126c4.859.443 9.118-19.761 9.118-19.761s-5.979 16.843-.99 17.507c5.511.743 10.578-17.651 10.578-17.651 13.026-.43 19.357-4.455 23.161-8.871-.091-.065-15.945-16.596-23.422-22.939z"/>
    <path fill="#141C3C" d="M394.114 150.898c-.938 2.189-1.902 4.39-2.606 6.657-.703 2.266-1.406 4.546-1.941 6.865-.741 3.015-1.143 6.105-1.198 9.21.76-5.403 2.02-10.723 3.765-15.893.742-2.253 1.302-4.546 2.11-6.813-.026-.052-.104-.078-.13-.026zM402.32 153.439c-1.914 2.709-4.989 11.593-5.549 17.116 0 .235.078.183.143 0 .873-2.891 4.482-14.212 5.472-17.064.026-.078-.04-.091-.066-.052zM409.759 154.337c-2.152 4.171-3.479 8.718-3.908 13.391 0 .222.117.144.182-.078 1.225-4.481 2.136-7.998 3.908-13.248-.013-.078-.143-.143-.182-.065z"/>
    <path fill="#E83C4D" d="M439.993 92.774l26.053-3.595s-3.126-17.13-9.835-28.958c-6.709-11.828-12.74-2.423-13.86 6.878-1.12 9.3-2.358 25.675-2.358 25.675z"/>
    <path fill="#141C3C" d="M463.779 84.49c-7.37 1.52-14.826 2.585-22.327 3.19-.091 0-.104-.143 0-.156 1.993-.182 13.17-2.214 22.327-3.139.092-.065.092.091 0 .104z"/>
    <path fill="#141C3C" d="M441.048 83.187c.274-3.14.756-7.634.847-10.786h-.078c-.287 1.706-.508 3.426-.691 5.21v-.3c-.091-.911-.208-1.823-.377-2.722 0 .925 0 1.85.104 2.775 0 .573.13 1.146.195 1.72-.091.924-.352 3.178-.443 4.09-.143 1.524-1.016 9.913-.859 9.9.156-.013 2.605-.47 3.113-.521.024 0 .047-.01.064-.027s.027-.04.027-.065c0-.024-.01-.047-.027-.064s-.04-.027-.064-.027c-.443.144-2.449.352-2.605.378.104-1.602.338-3.205.508-4.794.169-1.589.156-3.178.286-4.767zM462.672 72.244c0 .808.091 1.615.183 2.41 0 .274.078.547.13.808-.612-1.837-1.303-3.648-2.11-5.42 0 0-.092 0 0 0 1.12 3.075 1.967 6.214 2.8 9.38.404 1.524.782 3.074 1.134 4.611.182.795.364 1.59.56 2.384l.625 2.683c-.443 0-1.954.287-2.475.404-.117 0-.091.13 0 .105.456 0 2.788-.274 2.775-.326-.209-.82-.3-1.85-.456-2.684-.157-.833-.313-1.537-.482-2.292-.352-1.642-.743-3.283-1.16-4.911-.221-.9-.482-1.785-.755-2.67 0-.704-.091-1.434-.183-2.137-.091-.704-.208-1.602-.338-2.397 0-.143-.248-.052-.248.052z"/>
    <path fill="#AD6359" d="M431.044 63.555c3.999 1.199 11.333-4.598 14.329-9.47.208-.339-.104-3.999-.274-8.48-.104-2.71-.143-5.732 0-8.493 0-.574-17.572 3.191-17.572 3.191.781 3.514 1.131 7.11 1.042 10.708-.025.378-.086.753-.183 1.12v.183c-.429 2.136-1.224 10.07 2.658 11.241z"/>
    <path fill="#141C3C" d="M444.109 37.112c-1.081 4.624-4.65 15.75-13.912 15.41-.59-.02-1.178-.086-1.758-.195-.008-.065-.008-.13 0-.195.094-.368.16-.743.195-1.12.087-3.604-.267-7.204-1.055-10.721 0 0 12.727-2.71 16.53-3.179z" opacity=".32"/>
    <path fill="#AD6359" d="M446.194 14.927c2.358 5.98.521 23.97-3.53 28.255-5.875 6.24-16.192 7.607-21.664.378-5.301-6.996-2.488-30.378 2.098-34.364 6.76-5.85 19.605-3.114 23.096 5.731z"/>
    <path fill="#141C3C" d="M432.268 27.107s.092.066.079.118c-.157 1.198-.131 2.605.924 3.126 0 0 0 .078 0 0-1.328-.26-1.341-2.123-1.003-3.244z"/>
    <path fill="#141C3C" d="M433.48 25.948c1.954 0 1.732 3.908-.091 3.908-1.824 0-1.564-3.947.091-3.908zM425.221 26.743s-.091 0-.104.104c0 1.224-.274 2.605-1.394 2.944v.078c1.42-.117 1.667-1.967 1.498-3.126z"/>
    <path fill="#141C3C" d="M424.205 25.414c-1.941-.26-2.319 3.647-.521 3.908 1.798.26 2.162-3.686.521-3.908zM435.121 24.241c-.521-.169-.977-.403-1.485-.625-.553-.146-1.043-.471-1.394-.925-.084-.162-.111-.349-.076-.529.036-.18.132-.342.272-.46.306-.204.662-.32 1.029-.336.367-.016.732.068 1.055.244.712.244 1.307.746 1.667 1.407.074.156.101.33.078.501-.024.171-.097.331-.21.462-.114.13-.263.224-.429.27-.166.047-.342.044-.507-.009zM422.811 23.356c.547-.066 1.042-.209 1.576-.313.573-.036 1.118-.26 1.55-.638.115-.145.177-.324.177-.508 0-.185-.062-.364-.177-.508-.26-.257-.586-.438-.941-.526-.355-.087-.728-.076-1.078.03-.746.095-1.43.467-1.915 1.043-.106.138-.169.305-.181.479-.012.174.027.348.113.5.087.15.216.274.372.352.155.079.331.11.504.089zM427.331 36.095c.505.674 1.173 1.207 1.941 1.55.414.165.868.201 1.303.105.977-.248 1.016-1.133.847-1.902-.091-.406-.231-.8-.417-1.172-1.045.847-2.33 1.344-3.674 1.42z"/>
    <path fill="#FF99BA" d="M429.272 37.646c.414.164.868.2 1.303.104.977-.248 1.016-1.133.847-1.902-.508.018-.995.204-1.384.53-.389.325-.659.772-.766 1.268z"/>
    <path fill="#141C3C" d="M447.014 27.876c-1.237-.626-3.53-4.729-4.546-6.41-1.016-1.68-.847-9.808-.729-12.218 1.997 1.428 3.543 3.4 4.455 5.68 1.094 2.67 1.276 7.763.82 12.948z" opacity=".2"/>
    <path fill="#141C3C" d="M425.846 15.058c.64.855 1.489 1.532 2.465 1.965.976.434 2.047.61 3.111.51 1.085-.091 2.128-.46 3.029-1.072.902-.611 1.63-1.444 2.116-2.42 0-.064.117 0 .091 0-.431 1.064-1.145 1.99-2.063 2.678-.918.689-2.006 1.114-3.147 1.23-1.128.06-2.252-.176-3.262-.683-1.009-.507-1.87-1.268-2.496-2.208 0-.02.008-.04.023-.055.014-.015.034-.023.055-.023.021 0 .041.008.055.023.015.014.023.034.023.055zM433.284.038c1.65.106 3.247.626 4.642 1.511 1.396.886 2.546 2.109 3.344 3.557.654 1.446.796 3.073.404 4.611h-.144c.163-1.373-.048-2.764-.609-4.027-.562-1.263-1.454-2.352-2.582-3.15-1.229-.925-2.656-1.552-4.168-1.832s-3.068-.206-4.547.216c-1.439.39-2.694 1.276-3.543 2.501-.078.13-.339 0-.274-.104 1.121-2.228 4.208-3.57 7.477-3.283zM411.752 6.565c.698-1.755 2.001-3.2 3.673-4.078 2.306-1.237 4.807-.886 7.282-.469v.105c-2.083-.511-4.27-.403-6.292.312-1.682.706-3.065 1.978-3.908 3.595-.654 1.3-.92 2.759-.765 4.205.155 1.446.724 2.816 1.639 3.947.914 1.13 2.136 1.973 3.517 2.426 1.382.454 2.865.499 4.272.13.091 0 .143.104 0 .13-1.858.52-3.841.342-5.577-.497-1.737-.84-3.107-2.284-3.854-4.062-.706-1.85-.702-3.897.013-5.744z"/>
    <path fill="#141C3C" d="M447.067 18.64s3.816-6.279 1.159-10.2c-1.498-2.227-6.93-2.266-6.93-2.266-1.32-2.23-3.47-3.846-5.979-4.494-4.468-1.303-10.005 1.029-10.005 1.029s-4.155-2.71-8.324-.638c-5.796 2.878-5.601 11.476-.104 14.55 3.908 2.163 9.457-1.042 9.457-1.042.508.104 5.628 3.621 9.914-.886 0 0 3.1 3.088 6.148 1.225.407.875 1.071 1.605 1.905 2.092.834.487 1.796.707 2.759.63z"/>
    <path fill="#AD6359" d="M443.549 29.66s3.674-5.965 6.357-4.689c2.684 1.277.17 9.77-2.826 11.086-.371.197-.778.316-1.197.35-.418.036-.839-.015-1.238-.147-.398-.133-.765-.346-1.079-.624-.314-.28-.568-.62-.746-1l.729-4.975z"/>
    <defs>
        <linearGradient id="paint0_linear" x1="0" x2="627.951" y1="4.211" y2="382.06" gradientUnits="userSpaceOnUse">
            <stop stop-color="#F0F1F4"/>
            <stop offset="1" stop-color="#F0F1F4" stop-opacity=".48"/>
        </linearGradient>
        <linearGradient id="paint1_linear" x1="0" x2="627.951" y1="4.211" y2="382.06" gradientUnits="userSpaceOnUse">
            <stop stop-color="#F0F1F4"/>
            <stop offset="1" stop-color="#F0F1F4" stop-opacity=".48"/>
        </linearGradient>
    </defs>
</svg>
