<svg xmlns="http://www.w3.org/2000/svg" width="647" height="325" fill="none" viewBox="0 0 647 325">
    <rect width="440" height="256" x="207" y="64" fill="url(#paint0_linear)" rx="32"/>
    <path fill="#212E63" d="M380.565 166.487c7.935.035 13.347-5.168 13.329-12.424.018-6.682-4.646-11.502-10.962-11.502-3.915 0-7.378 1.88-8.979 5.029h-.243c.034-6.943 2.47-11.258 7.116-11.258 2.732 0 4.699 1.496 5.273 3.985h7.43c-.714-5.864-5.586-10.441-12.703-10.441-8.804 0-14.46 7.135-14.494 19.106-.018 13.051 6.908 17.47 14.233 17.505zm-.034-5.916c-3.481 0-6.056-2.801-6.056-6.282.018-3.462 2.645-6.281 6.108-6.281 3.48 0 6.02 2.732 6.003 6.264.017 3.567-2.575 6.299-6.055 6.299zM410.647 166h7.412v-16.043c0-2.958 1.879-4.925 4.35-4.925 2.436 0 4.072 1.671 4.072 4.298V166h7.187v-16.322c0-2.766 1.583-4.646 4.28-4.646 2.367 0 4.141 1.479 4.141 4.455V166h7.396v-17.975c0-5.794-3.446-9.1-8.422-9.1-3.915 0-6.96 2.001-8.057 5.063h-.278c-.853-3.097-3.585-5.063-7.256-5.063-3.602 0-6.334 1.914-7.448 5.063h-.313v-4.715h-7.064V166zm56.873.522c6.613 0 11.067-3.219 12.111-8.178l-6.856-.453c-.748 2.036-2.662 3.098-5.133 3.098-3.706 0-6.055-2.454-6.055-6.439v-.017h18.201v-2.036c0-9.083-5.499-13.572-12.563-13.572-7.866 0-12.964 5.585-12.964 13.833 0 8.474 5.029 13.764 13.259 13.764zm-5.933-16.583c.156-3.045 2.471-5.481 5.759-5.481 3.219 0 5.447 2.297 5.464 5.481h-11.223zm45.276-3.045c-.661-4.924-4.629-7.969-11.38-7.969-6.838 0-11.345 3.167-11.328 8.317-.017 4.002 2.506 6.595 7.726 7.639l4.629.922c2.331.47 3.393 1.323 3.428 2.663-.035 1.583-1.758 2.714-4.351 2.714-2.644 0-4.402-1.131-4.854-3.306l-7.291.383c.696 5.116 5.046 8.265 12.128 8.265 6.925 0 11.885-3.532 11.902-8.805-.017-3.863-2.54-6.177-7.726-7.238l-4.837-.975c-2.488-.539-3.411-1.392-3.393-2.679-.018-1.601 1.792-2.645 4.089-2.645 2.575 0 4.106 1.409 4.472 3.132l6.786-.418zm17.457 19.628c6.612 0 11.067-3.219 12.111-8.178l-6.856-.453c-.748 2.036-2.662 3.098-5.133 3.098-3.706 0-6.055-2.454-6.055-6.439v-.017h18.201v-2.036c0-9.083-5.499-13.572-12.564-13.572-7.865 0-12.963 5.585-12.963 13.833 0 8.474 5.029 13.764 13.259 13.764zm-5.933-16.583c.156-3.045 2.47-5.481 5.759-5.481 3.219 0 5.447 2.297 5.464 5.481h-11.223zm45.276-3.045c-.661-4.924-4.629-7.969-11.38-7.969-6.839 0-11.345 3.167-11.328 8.317-.017 4.002 2.506 6.595 7.726 7.639l4.628.922c2.332.47 3.394 1.323 3.428 2.663-.034 1.583-1.757 2.714-4.35 2.714-2.645 0-4.402-1.131-4.855-3.306l-7.29.383c.696 5.116 5.046 8.265 12.128 8.265 6.925 0 11.884-3.532 11.902-8.805-.018-3.863-2.541-6.177-7.726-7.238l-4.837-.975c-2.489-.539-3.411-1.392-3.393-2.679-.018-1.601 1.792-2.645 4.089-2.645 2.575 0 4.106 1.409 4.472 3.132l6.786-.418z"/>
    <path fill="#E83C4D" d="M407.636 206.625h12.5c-1.591-11.506-11.733-19.602-24.886-19.602-15.369 0-27.216 11.079-27.216 29.943 0 18.409 11.08 29.829 27.472 29.829 14.687 0 25.17-9.289 25.17-24.602v-7.329H396.33v9.261h12.5c-.171 7.216-5.086 11.79-13.268 11.79-9.232 0-15.056-6.904-15.056-19.063 0-12.102 6.051-18.949 14.943-18.949 6.335 0 10.625 3.267 12.187 8.722zM429.689 246h12.102v-24.688c0-5.369 3.921-9.062 9.262-9.062 1.676 0 3.977.284 5.113.653v-10.738c-1.079-.256-2.585-.426-3.807-.426-4.886 0-8.892 2.841-10.483 8.238h-.454v-7.613h-11.733V246zm43.927.824c6.449 0 10.625-2.813 12.756-6.875h.341V246h11.477v-29.432c0-10.398-8.806-14.773-18.522-14.773-10.455 0-17.33 5-19.006 12.955l11.193.909c.824-2.898 3.409-5.028 7.756-5.028 4.119 0 6.477 2.074 6.477 5.653v.171c0 2.812-2.983 3.181-10.568 3.92-8.636.795-16.392 3.693-16.392 13.437 0 8.637 6.165 13.012 14.488 13.012zm3.466-8.352c-3.721 0-6.392-1.733-6.392-5.057 0-3.409 2.813-5.085 7.074-5.682 2.642-.369 6.96-.994 8.409-1.96v4.63c0 4.574-3.778 8.069-9.091 8.069zm-1.306-41.733h8.551l8.664-12.927h-11.193l-6.022 12.927zm55.014 5.625h-8.21v-10.455h-12.103v10.455h-5.966v9.091h5.966v22.727c-.057 8.551 5.767 12.784 14.546 12.415 3.125-.114 5.341-.739 6.562-1.137l-1.903-9.005c-.597.113-1.875.397-3.012.397-2.414 0-4.09-.909-4.09-4.261v-21.136h8.21v-9.091zM538.673 246h12.103v-43.636h-12.103V246zm6.08-49.261c3.608 0 6.562-2.756 6.562-6.137 0-3.352-2.954-6.108-6.562-6.108-3.58 0-6.534 2.756-6.534 6.108 0 3.381 2.954 6.137 6.534 6.137zm52.024 18.068c-1.08-8.04-7.557-13.012-18.58-13.012-11.164 0-18.522 5.171-18.494 13.58-.028 6.534 4.091 10.767 12.614 12.472l7.557 1.505c3.806.767 5.539 2.159 5.596 4.347-.057 2.585-2.869 4.432-7.102 4.432-4.318 0-7.188-1.847-7.926-5.398l-11.904.625c1.137 8.352 8.239 13.494 19.801 13.494 11.307 0 19.404-5.767 19.432-14.375-.028-6.307-4.147-10.085-12.613-11.818l-7.898-1.591c-4.063-.88-5.568-2.273-5.54-4.375-.028-2.613 2.926-4.318 6.676-4.318 4.205 0 6.705 2.301 7.301 5.114l11.08-.682z"/>
    <path fill="#1B254F" d="M159.34 95.003c-20.052 34.455-13.264 82.294 28.39 114.595 37.899 29.39 94.747 25.083 115.867.759 22.395-25.841 13.781-61.622-9.371-73.13-22.309-11.094-45.565-5.168-60.191-18.502-6.994-6.391-11.834-21.672-21.757-31.578-11.077-11.025-40.035-14.246-52.938 7.856z"/>
    <path fill="#1B254F" d="M276.723 228.944c-15.596 4.95-32.195 5.851-48.235 2.619-16.101-3.298-31.226-10.26-44.204-20.345-13.2-9.866-23.505-23.099-29.836-38.314-6.026-15.262-7.811-31.869-5.168-48.064-1.886 16.134.379 32.482 6.58 47.496 3.168 7.415 7.323 14.369 12.352 20.672 5.055 6.268 10.87 11.881 17.313 16.711 6.38 4.912 13.257 9.144 20.517 12.627 14.62 6.926 30.648 10.364 46.822 10.044 8.069-.113 16.088-1.271 23.859-3.446zM300.927 139.053c-3.969-3.072-8.4-5.497-13.127-7.184-4.684-1.711-9.552-2.867-14.505-3.445-4.996-.586-9.991-1.292-14.97-2.188-5.048-.892-9.974-2.372-14.677-4.41-2.373-1.015-4.645-2.249-6.787-3.687-2.104-1.525-3.998-3.321-5.634-5.34-3.101-4.006-5.96-8.194-8.561-12.542-2.592-4.262-5.719-8.175-9.303-11.645-3.631-3.451-7.864-6.207-12.489-8.131 4.831 1.6 9.307 4.12 13.178 7.424 3.786 3.403 7.12 7.276 9.923 11.525 2.911 4.135 5.444 8.493 8.613 12.266 1.553 1.883 3.349 3.552 5.341 4.962 2.058 1.349 4.238 2.502 6.511 3.445 9.062 4.031 19.174 5.168 29.062 6.753 5.019.76 9.93 2.119 14.625 4.049 4.699 1.968 9.028 4.724 12.8 8.148z"/>
    <path fill="#EB9481" d="M221.229 178.704c37.918 8.686 88.97 3.686 101.892-12.286 12.032-14.956 12.116-82.046 1.101-113.44-2.394-6.843-52.958 9.66-51.56 17.286 3.325 17.837 9.278 58.107 3.728 65.013-4.936 6.143-34.486 14.299-61.898 20.082-33.3 7.012-8.367 19.892 6.737 23.345z"/>
    <path fill="#EB9481" d="M318.714 27.218c5.826 10.592 9.215 37.03 7.584 43.703-1.631 6.672-46.307 13.96-51.476 9.13-5.168-4.83-21.967-42.114-19.827-54.231 2.139-12.117 57.703-9.618 63.719 1.398z"/>
    <path fill="#EB9481" d="M255.461 45.14c5.55 3.22 6.185-5.17 6.185-5.17s2.118 12.308 9.024 13.41c6.906 1.101 7.139-9.11 7.181-9.83.106.636 2.267 11.885 9.427 12.287 7.16.403 6.08-9.872 5.995-10.592.296.572 4.364 8.177 9.871 7.224 9.469-1.61-.423-21.332 2.331-28.599 0 0 12.858 3.263 13.239 3.284 0 0-9.024-18.96-19.065-22.137-1.45-.478-3.02-.45-4.452.082-1.432.53-2.64 1.533-3.428 2.841 0 0-2.224-6.355-7.859-6.927-2.881-.233-5.847 4.237-5.847 4.237-.58-1.405-1.527-2.628-2.742-3.541-1.215-.913-2.653-1.483-4.164-1.65-4.024-.105-6.355 4.238-6.355 4.238s-4.236-3.983-8.325-2.754c-8.431 2.52-12.858 36.69-1.016 43.596z"/>
    <path fill="#1B254F" d="M264.23 5.038c0-.127-.127-.17-.169 0-4.414 11.293-5.286 23.661-2.5 35.462 0 .36.742.36.721 0-1.083-11.853-.426-23.8 1.948-35.462zM278.063 5.08c0-.127-.19-.19-.254 0-4.723 12.48-4.828 26.237-.297 38.788.17.445.763.657.594.148-2.712-8.685-2.437-28.068-.043-38.936zM293.93 46.072c-4.237-12.33-4.237-24.807-2.33-37.623 0-.148-.212-.17-.276 0-2.627 6.016-3.008 14.299-2.754 20.76.13 6.015 1.823 11.892 4.915 17.053.127.148.529.064.445-.19z"/>
    <path fill="#1B254F" d="M261.646 39.97c.593 2.326 1.408 4.59 2.436 6.758.901 2.155 2.364 4.028 4.237 5.423.882.596 1.956.838 3.008.678 1.07-.156 2.079-.595 2.923-1.27.79-.732 1.417-1.62 1.84-2.61.423-.989.634-2.056.618-3.132l.106-5.169 1.715 5c.738 2.187 1.825 4.24 3.22 6.08.607.9 1.396 1.662 2.315 2.238.92.577 1.949.954 3.024 1.109 1 .124 2.012-.099 2.867-.631.856-.532 1.504-1.341 1.835-2.293.713-2.143.867-4.433.445-6.652l-.974-6.164 2.944 5.55c.803 1.534 1.8 2.958 2.966 4.237 1.055 1.262 2.464 2.177 4.046 2.627.715.174 1.464.145 2.164-.083.7-.229 1.322-.647 1.797-1.21.882-1.423 1.338-3.07 1.313-4.745-.008-3.61-.298-7.216-.868-10.782-.212-1.8-.445-3.623-.572-5.445-.243-1.83-.099-3.693.424-5.465-.339 1.785-.339 3.617 0 5.402.275 1.8.635 3.58.995 5.36.832 3.603 1.321 7.277 1.462 10.973.107 2-.371 3.987-1.377 5.72-.658.872-1.553 1.535-2.579 1.911-1.026.376-2.138.448-3.204.207-1.973-.509-3.75-1.593-5.105-3.114-1.327-1.4-2.467-2.967-3.39-4.66l1.949-.679c.546 2.62.4 5.335-.423 7.88-.511 1.392-1.483 2.565-2.754 3.327-1.288.722-2.769 1.025-4.237.868-1.362-.187-2.669-.661-3.834-1.392-1.165-.73-2.162-1.7-2.923-2.845-1.521-2.074-2.688-4.386-3.453-6.842l1.843-.275c-.032 1.336-.354 2.649-.943 3.848-.588 1.2-1.431 2.258-2.468 3.1-1.092.778-2.371 1.253-3.707 1.377-1.356.137-2.714-.232-3.813-1.038-1.961-1.6-3.429-3.723-4.237-6.122-.806-2.283-1.353-4.65-1.631-7.055z"/>
    <path fill="#EB9481" d="M270.84 74.204s-40.439-31.776-20.273-41.478c5.974-2.881 34.021-7.605 35.08-1.992 1.377 7.245-9.977 11.397-17.497 12.88 0 0 15.273 8.855 12.265 21.333-.584 2.277-1.788 4.348-3.478 5.983-1.69 1.634-3.801 2.767-6.097 3.274z"/>
    <path fill="#1B254F" d="M248.936 33.636c2.208-1.414 4.614-2.492 7.139-3.198 2.511-.784 5.073-1.393 7.668-1.822 5.179-.96 10.431-1.463 15.697-1.504 1.433-.023 2.861.17 4.237.572.785.212 1.51.604 2.118 1.144.339.282.62.627.826 1.017.219.38.37.796.445 1.228.272 1.557-.029 3.16-.847 4.513-.763 1.222-1.73 2.304-2.86 3.198-2.167 1.65-4.604 2.91-7.202 3.729-2.516.859-5.094 1.525-7.711 1.99l.276-1.694c1.625 1.09 3.149 2.324 4.554 3.686 1.476 1.359 2.81 2.863 3.982 4.491 1.146 1.635 2.052 3.426 2.691 5.317.631 1.881.89 3.867.762 5.847-.136-1.933-.595-3.83-1.355-5.614-.784-1.754-1.804-3.393-3.03-4.872-1.194-1.487-2.543-2.844-4.024-4.046-1.455-1.213-3.023-2.285-4.682-3.199l-2.118-1.123 2.457-.53c2.524-.535 5.008-1.242 7.435-2.117 2.292-.846 4.437-2.047 6.355-3.56.936-.594 1.701-1.423 2.217-2.404.517-.98.767-2.08.728-3.188-.191-1.758-3.008-2.118-5.444-2.33-2.436-.212-5.106 0-7.69.148-2.584.148-5.169.339-7.732.657-5.124.441-10.148 1.677-14.892 3.664z"/>
    <path fill="#E83C4D" d="M337.885 72.425s6.207 74.842-14.129 97.064c-.894.993-1.864 1.913-2.902 2.754-22.264 19.066-80.793 19.426-101.68 14.956-13.917-3.008-21.353-14.045-22.751-20.443-.826-3.601 2.5-7.223 12.308-10.316 16.332-5.106 61.707-13.198 65.668-22.137 3.961-8.94-2.119-52.96-2.119-52.96l65.605-8.918z"/>
    <path fill="#1B254F" d="M333.183 86.343c-2.373 0-4.724.423-7.076.635-2.351.212-4.702.53-7.032.847-4.505.622-9.01 1.285-13.515 1.992l-13.494 2.118c-4.661.741-9.427 1.25-14.002 2.372-.026-.01-.054-.012-.081-.009-.027.004-.053.013-.075.03-.023.015-.041.035-.054.06-.012.024-.019.05-.019.078 0 .028.007.055.019.079.013.024.031.045.054.06.022.016.048.026.075.03.027.003.055 0 .081-.01 4.702-.233 9.426-1.08 14.087-1.695 4.66-.614 9.193-1.186 13.79-1.821 4.597-.636 9.193-1.25 13.79-1.97 2.246-.34 4.491-.72 6.715-1.165 2.225-.445 4.576-.678 6.758-1.335.233-.063.127-.296-.021-.296z"/>
    <path fill="#EB9481" d="M181.142 184.158c-21.29 32.56-61.58 64.421-81.916 61.836-19.065-2.436-65.669-50.693-79.48-80.943-3.03-6.589 44.845-29.785 49.103-23.303 9.998 15.147 33.639 48.3 42.367 49.422 7.816.996 34.761-13.642 58.508-28.492 28.915-18.028 19.891 8.495 11.418 21.48z"/>
    <path fill="#EB9481" d="M23.474 169.372c5.423 4.236 44.76-17.858 45.799-24.828.124-2.351-.061-4.709-.551-7.012 2.04-9.542 5.466-18.735 10.168-27.285 5.931-9.999 15.909-24.17 10.591-27.539-7.647-4.978-22.411 11.418-30.313 21.353-2.584-6.355-5.423-11.65-8.198-14.108-9.215-8.156-50.84 28.365-48.722 40.694 2.055 11.885 15.782 34.53 21.226 38.725z"/>
    <path fill="#EB9481" d="M62.663 105.333c-2.33 5.953-8.007-.212-8.007-.212s6.058 10.846 1.27 16.058c-4.787 5.211-11.226-2.67-11.692-3.199.296.572 5.613 10.592.275 15.422s-10.867-3.919-11.206-4.491c.127.635 1.652 9.088-3.22 11.778-8.367 4.597-12.9-16.947-19.552-20.866 0 0-7.986 10.592-8.283 10.782-.296.191-4.745-20.378 1.102-29.064.829-1.274 2.068-2.227 3.513-2.701 1.445-.474 3.008-.44 4.43.096 0 0-2.245-6.356 1.844-10.275 2.118-1.97 7.138-.381 7.138-.381-.433-1.483-.454-3.056-.058-4.55.396-1.493 1.193-2.85 2.304-3.924 3.071-2.584 7.647-.572 7.647-.572s.805-5.698 4.787-7.308c8.029-3.22 32.686 20.633 27.708 33.407z"/>
    <path fill="#1B254F" d="M30.952 79.51v-.17c10.452 6.063 18.81 15.167 23.958 26.099.148.339-.339.741-.593.381-6.478-9.851-14.349-18.713-23.365-26.31zM20.19 88.11c-.105 0 0-.254.17-.19C31.783 94.732 40.4 105.4 44.657 118c.128.444-.19.974-.38.487-3.242-8.431-15.486-23.366-24.086-30.378zM33.26 129.822c-4.236-12.287-12.095-21.968-21.522-30.76-.127 0 0-.275.17-.19 5.804 3.029 11.227 9.257 15.04 14.469 3.663 4.801 5.988 10.488 6.736 16.481.043.169-.317.339-.423 0z"/>
    <path fill="#1B254F" d="M54.868 105.185c.19.402-.636.211-.466.635.72 1.801 4.13 12.986.699 15.337-2.775 1.864-7.224-.551-8.474-2.118l-3.452-4.046 1.758 4.957c.814 2.185 1.258 4.49 1.313 6.821.09 1.079-.053 2.165-.419 3.185-.365 1.019-.944 1.949-1.7 2.725-.701.719-1.627 1.178-2.623 1.301-.998.123-2.007-.097-2.863-.623-1.88-1.244-3.417-2.941-4.47-4.936l-3.07-5.402 1.143 6.08c.311 1.697.41 3.426.297 5.148-.059 1.633-.588 3.215-1.526 4.554-.452.578-1.056 1.019-1.744 1.273-.689.254-1.434.312-2.153.168-1.568-.565-2.942-1.564-3.962-2.881-2.239-2.82-4.257-5.809-6.037-8.94-.953-1.546-1.906-3.092-2.944-4.618-.937-1.577-2.201-2.935-3.708-3.982 1.356 1.188 2.471 2.627 3.284 4.236.91 1.568 1.737 3.178 2.563 4.809 1.596 3.319 3.496 6.482 5.677 9.448 1.159 1.622 2.763 2.873 4.618 3.602 1.057.283 2.173.251 3.211-.091 1.04-.343 1.955-.981 2.636-1.837 1.247-1.612 1.985-3.559 2.118-5.593.159-1.909.074-3.831-.254-5.719l-1.949.677c1.208 2.376 3.01 4.397 5.232 5.868 1.26.796 2.764 1.112 4.237.89 1.43-.231 2.754-.897 3.792-1.906.952-.988 1.68-2.169 2.137-3.463.457-1.293.631-2.67.51-4.037-.093-2.557-.6-5.083-1.503-7.477l-1.61.932c1.78 1.97 6.355 5.211 11.1 2.838 5.529-3.961-.19-15.739-1.398-17.815z"/>
    <path fill="#1B254F" d="M54.656 105.12c1.06.779 2.231 1.393 3.474 1.822.5.177 1.036.22 1.557.123.52-.097 1.007-.329 1.409-.674.76-.892 1.258-1.977 1.44-3.135.233-1.25.445-2.605.572-4.004.574 1.337.849 2.783.805 4.237.04 1.569-.537 3.091-1.61 4.237-.654.569-1.467.924-2.33 1.017-.814.06-1.629-.109-2.351-.488-1.295-.706-2.333-1.803-2.966-3.135z"/>
    <path fill="#E83C4D" d="M174.575 159.479c-15.316 7.626-53.615 33.301-62.703 29.658-9.087-3.644-35.185-39.636-35.185-39.636l-53.361 39s47.43 58.214 77.51 60.099c30.08 1.885 66.876-40.017 79.395-58.489 12.519-18.472 19.849-43.342-5.656-30.632z"/>
    <path fill="#1B254F" d="M36.438 195.28c1.695-1.631 3.686-2.945 5.53-4.428 1.842-1.482 3.748-2.881 5.655-4.236 3.665-2.691 7.393-5.339 11.121-7.944l11.185-7.838c3.855-2.691 7.668-5.635 11.736-8.008.036-.018.078-.022.117-.011.039.01.073.034.096.067.023.033.033.074.03.114-.005.04-.023.078-.053.105-3.559 3.093-7.54 5.741-11.312 8.474l-11.206 8.262c-3.749 2.754-7.498 5.465-11.29 8.156-1.864 1.313-3.75 2.584-5.656 3.834-1.907 1.25-3.77 2.669-5.804 3.707-.17.106-.276-.042-.149-.254z"/>
    <path fill="#263238" fill-opacity=".32" d="M126.319 241.694c22.857-12.35 44.803-38.131 53.848-51.583 7.944-11.821 13.854-26.247 10.423-31.776-1.377-2.288-4.237-3.093-9.385-1.589l-54.886 84.948z"/>
    <path fill="#E83C4D" d="M128.367 313.261c1.822 2.288 131.337 11.672 131.993 10.91 1.949-2.013-19.361-136.637-46.37-161.719-5.825-5.381-29.508-6.355-32.855-5.275-3.771 1.144-15.422 18.007-21.184 32.009-11.545 28.027-33.152 122.041-31.584 124.075z"/>
    <path fill="#EB9481" d="M206.283 160.208c-.499 2.016-15.366 14.626-24.582 14.092-2.998-.189 2.36-16.228 2.36-16.228l-.259-1.206-3.6-17.02 20.069-12.576 2.911-1.723s.672 4.721 1.465 10.612c0 .276.086.552.12.844.035.293.104.638.138.948.121.879.258 1.723.362 2.67.103.948.172 1.344.241 2.067.069.724.155 1.43.224 2.137.546 5.108.73 10.249.551 15.383z"/>
    <path fill="#263238" fill-opacity=".24" d="M204.647 136.211c-1.768 4.751-4.548 9.061-8.147 12.631-3.599 3.57-7.932 6.314-12.698 8.042l-3.6-17.021 20.069-12.593 2.911-1.723s.672 4.772 1.465 10.664z"/>
    <path fill="#EB9481" d="M156.257 114.78c-4.186 30.251 13.454 36.177 19.983 37.056 5.909.827 26.184 2.825 33.471-26.823 7.287-29.648-5.46-41.156-18.949-43.723s-30.319 3.239-34.505 33.49z"/>
    <path fill="#1B254F" d="M166.472 110.043c.701-.055 1.397-.152 2.085-.293.747-.005 1.473-.253 2.067-.707.149-.188.231-.422.231-.663 0-.241-.082-.474-.231-.663-.323-.353-.735-.613-1.192-.752-.458-.14-.944-.154-1.409-.041-.98.067-1.898.504-2.567 1.224-.151.176-.245.394-.27.625-.024.231.021.464.131.669.11.205.279.372.485.479.206.107.44.149.67.122zM186.696 114.211c-.706.121-1.395.104-2.101.155-.731.157-1.493.073-2.171-.241-.195-.14-.339-.342-.407-.572-.069-.231-.059-.478.028-.703.241-.416.588-.762 1.005-1.001.418-.239.891-.363 1.373-.36.971-.141 1.961.086 2.773.638.181.137.318.325.394.538.076.214.088.446.036.667-.053.221-.169.421-.334.578-.165.156-.372.26-.596.301zM182.269 119.535s.155.103.155.189c-.258 2.067-.206 4.479 1.602 5.34v.104c-2.274-.517-2.325-3.721-1.757-5.633z"/>
    <path fill="#1B254F" d="M184.319 117.536c3.359 0 3.015 6.753-.103 6.701-3.118-.051-2.705-6.735.103-6.701z"/>
    <path fill="#1B254F" d="M185.611 117.967c.569.396 1.12 1.102 1.809 1.206.689.103 1.464-.534 2.033-1.189h.12c0 1.275-.62 2.567-1.998 2.688-1.378.12-2.102-1.068-2.36-2.378-.052-.155.172-.499.396-.327zM169.969 117.915s-.155 0-.172.173c0 2.084-.396 4.461-2.308 5.064v.121c2.325-.224 2.79-3.377 2.48-5.358z"/>
    <path fill="#1B254F" d="M168.212 115.658c-3.325-.396-3.893 6.288-.792 6.667 3.1.379 3.565-6.322.792-6.667z"/>
    <path fill="#1B254F" d="M166.782 115.986c-.551.31-1.137.913-1.722.896-.586-.017-1.206-.775-1.62-1.516h-.103c-.155 1.275.155 2.636 1.378 2.997 1.223.362 2.016-.723 2.412-1.963.034-.155-.121-.534-.345-.414zM172.226 127.355s-.62 3.067-.724 4.531c0 .138.345.224.845.293 1.237.311 2.536.273 3.752-.11 1.217-.383 2.303-1.097 3.138-2.061.014-.029.019-.061.013-.093-.005-.031-.02-.061-.043-.083-.023-.023-.052-.038-.083-.043-.032-.006-.064-.001-.093.013-1.946 1.153-4.211 1.649-6.46 1.412-.087-.413 1.24-5.168 1.016-5.168-1.168.016-2.328.195-3.445.534 1.119-6.443 3.255-12.644 4.272-19.07 0-.224-.293-.31-.362-.12-2.496 6.583-4.331 13.398-5.478 20.344-.017.741 3.049-.172 3.652-.379z"/>
    <path fill="#1B254F" d="M172.536 131.059c.67 1.302 1.667 2.406 2.894 3.204.677.413 1.466.605 2.257.552 1.723-.138 2.05-1.723 1.981-2.998-.042-.724-.169-1.441-.379-2.136-2.044 1.174-4.412 1.657-6.753 1.378z"/>
    <path fill="#E587B4" d="M175.43 134.264c.677.412 1.466.605 2.257.551 1.723-.137 2.05-1.722 1.981-2.997-.879-.132-1.777.038-2.546.482-.77.445-1.366 1.137-1.692 1.964z"/>
    <path fill="#1B254F" d="M209.35 122.86c-7.27-.311-6.616-11.767-6.616-11.767s-8.217-1.171-8.131-14.505c-1.74 2.588-4.057 4.737-6.768 6.28-2.711 1.542-5.742 2.435-8.856 2.609-2.395.224 5.857-5.495 5.857-5.495s-9.94 8.114-27.408 3.945c-1.24-.31 2.377-18.76 16.538-24.394 14.16-5.633 26.426-1.395 34.453 7.77 0 0 9.888 5.168 10.543 14.849.655 9.682-6.787 20.811-9.612 20.708z"/>
    <path fill="#EB9481" d="M204.543 124.582s7.149-9.181 11.335-6.597c4.186 2.584-1.498 16.141-6.666 17.76-.648.255-1.341.375-2.037.355-.696-.02-1.38-.18-2.013-.472-.632-.291-1.199-.707-1.666-1.222-.468-.516-.826-1.121-1.054-1.779l2.101-8.045z"/>
    <path fill="#1B254F" d="M214.156 121.826s.086.121 0 .138c-3.635 1.257-5.668 4.461-7.149 7.821.223-.346.519-.639.867-.859.347-.22.738-.362 1.146-.416.408-.054.823-.019 1.216.103s.755.328 1.06.603c.086 0 0 .207-.103.19-.615-.235-1.287-.271-1.924-.105-.636.167-1.204.529-1.625 1.035-.669.85-1.246 1.768-1.723 2.739-.189.31-.758.103-.62-.258.138-4.617 3.962-10.784 8.855-10.991zM177.876 171.785c.827-3.239 1.585-6.547 2.567-9.751 0-.121.224-.138.241 0 0 3.308-3.221 15.728-3.772 18.76.396-.275 8.613-5.616 8.613-5.495.844 2.033 3.29 11.112 3.445 11.921 3.359-3.755 16.021-17.227 19.794-20.672.02-.026.05-.042.082-.045.033-.003.065.007.09.027.025.021.041.051.044.083.004.032-.006.064-.027.09-3.101 4.048-19.948 22.395-20.138 22.24-1.379-4.324-2.529-8.717-3.445-13.162-1.464 1.223-9.923 7.408-9.854 6.891.587-3.669 1.375-7.304 2.36-10.887z"/>
    <defs>
        <linearGradient id="paint0_linear" x1="207" x2="597.609" y1="64" y2="380.882" gradientUnits="userSpaceOnUse">
            <stop stop-color="#F0F1F4"/>
            <stop offset="1" stop-color="#F0F1F4" stop-opacity=".48"/>
        </linearGradient>
    </defs>
</svg>
